<svg id="Layer_1" data-name="Layer 1" xmlns="http://www.w3.org/2000/svg" viewBox="0 0 467.44 517.39"><defs><style>.cls-1{fill:#c0482b;}.cls-2{fill:none;}.cls-3,.cls-7{fill:#85d0d9;}.cls-4{fill:#45b649;}.cls-12,.cls-5{fill:#fff;}.cls-6{fill:#e5c746;}.cls-7{opacity:0.55;}.cls-8{fill:#373d41;}.cls-9{fill:#010101;}.cls-10{fill:#2f67b2;}.cls-11{fill:#0099cd;}.cls-12{stroke:#010101;stroke-miterlimit:10;stroke-width:9px;}</style></defs><path class="cls-1" d="M400.08,53.9h2c-.47,1.54-.83,3.12-1.43,4.6-1.4,3.5,1,5.31,3.28,6.8,1,.62,3.71.38,4-.23a14.84,14.84,0,0,0,1.05-6,28.55,28.55,0,0,0-.9-5.18h3a31.23,31.23,0,0,0,1,4.32c1.48,3.76,1.21,6.82-1.24,10.49-2.17,3.24-2.51,7.71-4.05,13,8.39-.62,14.94-1.4,21.5-1.53,27.7-.56,55.36-.82,83,2,17.56,1.78,35.33,1.13,52.66,5.5,12.32,3.1,24.81,5.55,37.22,8.33,3.75.84,4.15,3.09,2.76,6.37a26.23,26.23,0,0,0-2.39,8c-.61,8.91-.86,17.86-1.15,26.79-.3,9.29-.58,18.58-.72,27.88-.39,27.56-.68,55.12-1.07,82.68-.11,7.31-.26,14.61-.7,21.9-.88,14.65-2.83,29.29-2.81,43.93.07,46.45.87,92.89,1.33,139.34.11,10.47-.38,21,.11,31.41.39,8.38-1,15.64-6.53,22.36-4.42,5.32-3.8,6,1.76,10.28,1,.8,1.83,2,2.91,2.7,4.23,2.87,6.79,8.34,12.88,8.32v5c-8.28,1.3-16.57,3.68-24.86,3.73-62.84.32-125.68.18-188.53.2-28.26,0-56.53.56-84.78-.09-28-.64-56.06,3-83.9-2.58-6.33-1.27-12.85-1.6-20.61-2.53,2.37-3.16,4.14-5.25,5.6-7.54,1.64-2.54,4.21-5.23,4.25-7.89.1-7.24-.87-14.51-1.5-21.76-1.49-17.28-3.17-34.54-4.51-51.83-.87-11.21-1.14-22.47-1.94-33.69-.87-12.19-1.95-24.37-3.13-36.54-1.14-11.85-2.63-23.67-3.8-35.52q-2.17-21.93-4-43.87c-.9-10.71-1.47-21.44-2.25-32.15-1.14-15.48-2.37-31-3.52-46.42-.85-11.52-1.56-23.06-2.48-34.58-.88-11.1-2.34-22.17-2.82-33.29-.5-11.62-.15-23.27-.14-34.91,0-1.45.17-2.89.26-4.24l7.65-1.26c14.62-2.4,29.18-5.34,43.89-7,13.29-1.52,26.75-1.55,40.13-2.43,17.49-1.14,35-2.55,52.46-3.7,13-.85,26.09-1.47,39.13-2.21a8.76,8.76,0,0,0,2.46-.36c9.29-3.34,18.59-6.67,27.85-10.12,4.05-1.51,4.68-3.69,2-7.35-3.76-5.25-5.9-10.42-1-16.18C400.09,56.14,399.92,54.87,400.08,53.9Zm-41.6,221.3-7,4.95,1.42,1.8c9.74,2.81,20.82,2.14,28.49,10.49a55.15,55.15,0,0,1-9.26-1.09c-11.93-1.81-23.75-2.24-34.91,3.47-1.23.63-2,2.2-3,3.34,1.39.62,2.8,1.8,4.17,1.75,14.86-.51,29.74-1,44.56-2.06,3.88-.29,7.71-2.49,11.35-4.24,3.89-1.87,8.17-1,8.81,2.65s2.68,4.45,5.92,4.2c1.63-.12,3.29.39,4.94.36,10.09-.15,20.18-.22,30.26-.71,2-.09,3.89-1.92,5.83-2.95l-.64-1.1-36-3.47-.23-1.5c7.24-5.75,18.11-5.74,23.93-13.74l-.59-1.51-36.32,11.57c-2-8.62,1.77-17.52-3.58-26.68-2.48,2.94-5.48,5-6.22,7.66-2,7.25-2.69,14.73.86,22.23a7.18,7.18,0,0,1-3.84-2.65c-5.29-8.77-12.32-14-23.17-12.38-1.92.28-3.95-.16-5.93-.27,9.31-5.25,17.54-2.47,25.15,3.92l6.2-16.55-25.76,2.71a1.55,1.55,0,0,1,.56-.63,7.94,7.94,0,0,1,2.67-1.26c9.44-1.26,18.88-3.24,28.35-3.44,12.39-.26,24.82.93,37.23,1.43,8.33.33,14.66,3.81,19.62,10.67s10.75,13.24,17.12,21c-.16-2.54,0-3.58-.32-4.36-10.06-22.07-27.08-35.06-51.13-38.3-23.34-3.14-45.54,1.66-66.78,11.16-10.83,4.84-20.83,11-26.28,22.28-2.65,5.5-5.9,10.81-7.76,16.57-2,6.28-6.17,7.23-11.73,7.09-7.9-.19-15.82,0-25.35,0,2.51,9,4.47,16.76,7,24.32.32,1,3.4,1.46,5.22,1.48,4.06.05,8.12-.35,13.35-.62,4-4.48,7-4,10.78,2.86a4.56,4.56,0,0,0,3.38,1.93c19.77,0,39.55,0,59.31-.46,8-.18,11.92-5.38,10.17-12.11-8.54-.17-9.51-1-7.11-7.43,1.09,2.18,1.88,3.78,2.93,5.9l7.59-4.13c-1,6.52-1.89,12.07-2.81,17.91,1.61,0,3.43.07,5.24,0,9.73-.41,19.47-1.29,29.2-1.18,15.07.18,30.13,1.15,45.2,1.52,8.34.2,13-4.79,12.07-12.18-8.88-.74-10.18-2-6.89-7.6,1.3,7.16,9.59,2.69,9.92,3l-3.23,17.76c6.1.11,13-.92,17.72,5.76,1.79-2.76,3.14-4.85,4.5-6.93l6.9,5.2c-.65-11.82-1.14-22.64-1.93-33.44-.14-1.88-1.19-4.95-2.44-5.31-10.4-3-21.25-5.41-31.87-3.36a214.72,214.72,0,0,1-43.56,3.45c-4.89-.06-9.79,0-14.66-.33-7.43-.49-14.87-2-22.26-1.78-19.35.68-38.67,2.26-58,3.17-9.63.45-11.52-1.82-9.59-10.87s7.44-15.17,15.5-19.24c-6.75,6.44-13.22,13-13.66,24.93,7.05-8,15.25-11.4,25.9-11.89-1.84-1.29-2.36-1.63-2.86-2l-4.39-3.26c1.3-1.46,2.35-3.35,3.95-4.28C353.08,276.92,355.87,276.2,358.48,275.2ZM578.55,498.43c3-1.12,4.73-2.15,6.62-2.44,5.5-.84,6.61-4.07,6.36-9.17-.69-14.22-1.32-28.48-1.25-42.71q.33-69.53,1.22-139C591.77,283,592.67,261,593,238.9c.41-26.25.53-52.51.79-78.76,0-1.16.21-2.32.2-3.48-.07-18.08-.08-36.16-.42-54.23,0-1.55-2-4-3.57-4.43-9.56-2.65-19.16-5.4-28.93-7-11.56-1.93-23.29-2.79-35-4.06-11.85-1.3-23.67-3.19-35.55-3.66-17.76-.71-35.56-.58-53.34-.43-8.25.07-16.49,1.12-24.75,1.49-3.56.16-4.5,1.86-4.33,5.07.46,8.28.82,16.56,1.14,24.84.12,3.15-.12,6.31.05,9.46.7,12.39,1.25,24.8,2.36,37.16.54,6-1.36,13.91,8.72,14.57,1.42.09,2.86,1.62,4.09,2.72,11.09,9.86,22.21,19.69,33.18,29.69q19,17.34,37.78,35,19.37,18.09,38.57,36.36c14.32,13.65,28.54,27.42,42.78,41.16a55,55,0,0,1,5.49,5.73c1.9,2.46,2.31,4.89-1.53,6.06-3.59,1.09-7.12,2.68-10.79,3.09s-4.46,1.75-4.42,5c.14,9.3.36,18.63,0,27.93-.6,13.73-1.53,27.45-2.66,41.14-.82,9.89-2.86,19.7-3.16,29.59-.4,12.93.29,25.91.69,38.86.14,4.5.83,9,1.3,13.81l16.84-10.69ZM215.89,314.17c1-2.24,1.3-4.1,2.38-5.25a61.8,61.8,0,0,1,6.78-5.81c18.22-14.52,36.15-29.43,54.78-43.4,16.25-12.18,32.94-23.88,50.1-34.76,25.38-16.09,51.37-31.23,77-46.94a6.58,6.58,0,0,0,2.8-5c-.87-12.22-2.08-24.42-3.39-36.61a4,4,0,0,0-2.7-2.78c-9.4-.72-19.15,1.89-21.55,13.56-.45,2.19-1.76,4.21-2.74,6.27-3.75,7.81-11.38,11.32-18,15.74a89.29,89.29,0,0,1-15,7.6c-6.07,2.52-9,1.38-10.14-4.75-2.66-14.11-4.6-28.36-6.89-42.54-.69-4.27,1.7-6.09,5.29-6.88,4.84-1.07,9.72-2,14.59-2.91,7-1.36,13.91-3.36,16.11-11.18,1.08-3.82.57-8.1.76-11.89-.88-.46-1.17-.74-1.45-.74-23.19.5-46.43.19-69.54,1.76-22.07,1.51-44,4.87-66,7.63-11,1.38-21.91,3.31-32.89,4.86-4.68.66-5.88,3.41-5.65,7.69.72,13.74,1.25,27.5,1.92,41.24q1.25,25.32,2.63,50.62c.71,12.57,1.6,25.13,2.4,37.69.56,8.77.9,17.56,1.68,26.31,1.35,15,3,29.93,4.46,44.9,1.13,11.19,2.24,22.38,3.4,33.56,1.42,13.65,3.22,27.26,4.25,40.94,1.1,14.68,1.52,29.41,2.21,44.12.17,3.65,0,7.33.33,11,1.42,15,3,29.93,4.51,44.89.56,5.54,1.18,11.08,1.77,16.53,11.62,1.68,10.74-5.63,9.16-13.74l16.15,5.61c0-3.29.12-5.61,0-7.91-.83-13.71-1.86-27.42-2.54-41.14-.91-18.24-1.6-36.49-2.3-54.73-1-25.67-2-51.34-2.74-77-.11-4.15-1.78-5.06-5.27-5.24C227.44,315.21,222.35,314.69,215.89,314.17Zm-6.07,215.09c5.18.87,9.21,2,13.27,2.14,17.07.62,34.14,1.27,51.22,1.3,20.92,0,41.84-.45,62.76-.86,25.53-.49,51.07-1.14,76.6-1.71,14.93-.33,29.87-.86,44.81-.92,33.4-.11,66.81,0,100.22,0,7.12,0,14.25.13,21.36-.16,3.26-.13,6.49-1.13,10.48-1.88-1.87-2.76-3.06-4.32-4-6-4-6.74-3.68-9,1.38-15.07a58.73,58.73,0,0,0,3.83-5.8l-.89-1.21c-3.93,1.06-7.82,2.28-11.8,3.11-1.79.37-3.74,0-5.62-.09a31.49,31.49,0,0,1,.23-5.25c.63-3.11,1.58-6.16,2.68-10.31-6.74,2.43-10.85,5.78-14.13,10.5-1.38,2-3.54,4.46-5.58,4.7-7.38.87-14.87.87-22.32,1.24-4.66.24-9.32.58-14.39.89,1.39,3.35,2.4,5.76,3.74,9-2.17-.43-3.51-1.13-4.08-.73-6.32,4.41-13.47,2.52-20.28,2.61-1.53,0-3.57-2-4.51-3.57s-.75-3.78-1.16-6.36c-1.66,0-3.44,0-5.22,0-23.37.76-46.73,1.93-70.1,2.15-15.55.15-31.11-1.42-46.66-1.54a268.94,268.94,0,0,0-35.69,1.63c-9.65,1.22-19.14,3.52-29,2.85-3.45-.23-6.93-.39-10.39-.28-14.75.47-29.49,1.13-44.24,1.5-1.75,0-3.55-1.16-5.29-1.87-4.13-1.67-8.23-3.39-12.35-5.09,1.58,7.15-2,9.3-6.8,10.63a13.44,13.44,0,0,0-3.27,1.19A46.08,46.08,0,0,0,209.82,529.26ZM491.9,349.31c1-5.66.27-6.67-4.74-7.06-2-.15-4-.08-6-.21C466,341,450.84,339.36,435.63,339c-14.91-.37-29.85.48-44.78.83-20.41.48-40.82.92-61.23,1.56-5.42.17-11.44.1-11.39,8.24,0,.88-1.07,1.71-1.25,2.65-.9,4.41-1.66,8.86-2.52,13.57,1.91.22,2.71.38,3.52.4,32.62.61,65.25,1.36,97.88,1.75,22.77.27,45.55,0,68.32,0,1.55,0,3.09-.2,4.38-.29-1-7-2-13.41-3-20.4ZM411.39,465.22h-.05c0-7,.18-14,0-20.94-.39-12.43-.86-24.86-1.57-37.28-.51-8.78-.95-9-9.39-9.25-2.82-.1-5.63-.72-8.43-.63-8.77.25-17.54.56-26.28,1.21-3.91.29-6.06,2.49-5.62,7,1.09,11.18,1.79,22.41,2.8,33.6,1.79,19.74,3.79,39.47,5.45,59.22.34,4,2,5,5.63,4.92,10.13-.18,20.27-.08,30.41-.06,6.8,0,7.08-.22,7.08-6.86Zm-11.13-73.3.15,1.4A155.11,155.11,0,0,1,451.54,399c3.53,1,8.88,1.53,3.58,7.21-.44.47-.12,1.61-.23,2.43-1.74,13.11-3.43,26.23-5.24,39.32-1.38,10-3,19.88-4.36,29.84-.82,6.07-1.09,12.22-2,18.27-.35,2.36-1.85,4.91,1.91,5.13,3.24.18,7.55,1.34,8.67-3.43.82-3.5.8-7.21,1-10.83.6-11.24,1-22.5,1.71-33.73,1-17,2.06-34,3.48-51,.42-4.91-1.71-7.55-5.6-9.24a29.22,29.22,0,0,0-9-2.74c-18.32-1.46-36.65-3.22-55-3.66-12-.29-24.1,1.52-36.16,2.26-2.87.18-4.19,1.21-4.17,4.2,0,10.46-.71,21,0,31.38,1.17,16.14,3.17,32.24,5.14,48.31,1.06,8.69,2.67,17.32,4.32,25.91.27,1.38,2,2.46,3.11,3.67.45-1.44,1.4-2.93,1.29-4.33-.86-10.52-2-21-2.91-31.54-.51-5.6-.78-11.21-1.34-16.8-1.43-14.49-3.17-28.94-4.36-43.44-.52-6.43,1.17-8.41,7.53-9.38C375.36,395,387.82,393.54,400.26,391.92ZM500,500c10,.7,10.08.53,10-8.34q-.3-47.08-.53-94.17c-.07-11-.1-11-10.9-12.53a6.27,6.27,0,0,0-1.78.42c0,1.94-.09,3.89,0,5.83.43,7.75,1.05,15.5,1.35,23.26.22,5.64,0,11.29.05,16.94,0,7.59-.16,7.8-7.8,7.79-7.23,0-7.23,0-6.64,7.05a23.17,23.17,0,0,1,.26,2.48c-.07,3.15,1.32,4.53,4.55,4.28,2.63-.2,5.29,0,7.93,0l0,1.67a85,85,0,0,0-8.47.92c-1.41.28-3.35,1.11-3.81,2.21-1.23,2.93,2.25,10.41,5.22,11.81,2.33,1.1,4.8,1.92,6.74,2.69C497.5,481.58,498.73,490.66,500,500ZM413.25,398c.49,35.58-1.42,70.2,2.9,104.21,6.77,0,12.9.27,19-.18,1.69-.12,4.41-2.16,4.65-3.64,1.57-9.59,2.59-19.27,3.77-28.93,1.3-10.64,2.68-21.28,3.84-31.94.94-8.68,2-17.37,2.22-26.09.11-4-.15-8.48-6.7-8.7-6.38-.21-12.71-1.92-19.07-3ZM311,382.19c-2.8,0-5.26.09-7.72,0-4.19-.2-6.2,1.5-5.8,5.88.44,4.78.62,9.57,1,14.36q1.72,21,3.53,42c1.43,16.79,2.8,33.59,4.44,50.35.18,1.81,1.73,4.6,3.12,4.93,3.4.81,4.4-1.67,4.3-4.86-.29-9.45-.45-18.9-.63-28.35-.39-20.41-.71-40.82-1.17-61.22C311.86,397.82,311.34,390.39,311,382.19Zm113.34-93.14.32,1.35a110.8,110.8,0,0,1,11.11.68c8,1.25,15.92,2.91,23.91,4.2,1.29.21,3.52-.17,3.92-1a4.92,4.92,0,0,0-.47-4.34c-5.57-7.06-11.24-14.06-17.22-20.78-1.33-1.49-4-2-6.12-2.54a50.18,50.18,0,0,0-7.36-1.05c-9.83-.95-19.67-1.85-30.17-2.82v20.67c7.35-2.3,14.22-4.58,21.17-6.59,5.37-1.54,10.8-2.93,16.28-4,1.66-.32,3.58.77,5.38,1.21-.54,1.81-.52,4.32-1.73,5.29a60.17,60.17,0,0,1-10.26,6.32A82.36,82.36,0,0,1,424.29,289.05Zm-21-185.81H403c0-2.81.19-5.64,0-8.44-.74-9.2-.8-9.2-9.56-6.67-8.05,2.33-8.47,2.81-9.21,11.35-.19,2.14-.19,4.3-.2,6.45-.1,13.17,1.89,14.7,15.07,11.62,3.4-.8,5.83-1.89,4.39-6.4C402.63,108.75,403.26,105.89,403.26,103.24Zm-10.5,18.69c-3,0-5.05.39-6.88-.07-4.63-1.19-8.05.55-11,3.8-1.54,1.69-3,3.48-4.5,5.19-5.58,6.23-10.86,12.86-19.16,15.74-3.58,1.24-7.17,2.77-10.87,3.27-5.22.7-6,2.79-4.87,7.74.91,4,2.41,4.65,5.7,3.44a64.29,64.29,0,0,0,22.32-14.21c8.6-8.18,15.65-18.39,27.66-22.43C391.58,124.25,391.8,123.43,392.76,121.93ZM278.25,415.73c-5.55.74-10.28,1.21-14.93,2.09-1.12.21-2.81,1.75-2.81,2.68,0,5.27.33,10.54.83,15.79a3.56,3.56,0,0,0,2.31,2.5c5.05.24,10.13.12,14.6.12Zm3,10.68c.14,13.56.54,13.89,12.63,11.87,2.64-.44,3.79-1.5,3.6-4.22a112,112,0,0,1-.49-12.41c.2-4.6-1.3-5.92-6.05-5.45C281.18,417.17,281.15,416.86,281.24,426.41Zm-2.63,25.3c.11-10.59-.47-11.16-11.07-10.76-.66,0-1.32,0-2,0-2.8.11-4.3,1.45-4.1,4.37.31,4.45.54,8.9,1,13.34.28,3,1.88,3.92,5,3.87C277.49,462.4,278.51,461.6,278.61,451.71ZM379.25,103.89c-4.39,3-9.76,5.07-12.69,9-5.59,7.49-13.62,9.27-21.48,12.07a43.76,43.76,0,0,0-9.18,4.65c-1,.66-1.36,2.68-1.45,4.11,0,.36,2.14,1.38,3.17,1.23,6.51-.95,12.64-2.54,18.31-6.51,7.63-5.34,13-13.63,22.36-16.81C379.74,111.13,382.15,107.14,379.25,103.89ZM282.74,450.76a53,53,0,0,0,.08,6.43c.14,1.15,1,3.17,1.6,3.16,4.39,0,8.91.07,13.06-1.06,1-.26.72-5.08.95-7.81.09-1-.14-2-.06-3,.33-4.32-1.56-6.15-5.95-6.51C282.68,441.22,282.7,441,282.74,450.76ZM277.37,397c-4.09.29-7.55.34-10.95.87a4.35,4.35,0,0,0-3,2.4c-1.25,4.36-2.09,8.85-3.33,14.41l17.3-.82Zm22.93-41.65c-2.13,1.15-3.54,2-5,2.66s-3.14,2-4.75,2.06c-6.89.26-7.16.56-3.5,6.79.66,1.12,1.92,2.45,3.06,2.62a122.11,122.11,0,0,0,14.13,1.45c6.62.25,8.48-2.79,5.81-9.85l-9.1,5.41C300.73,362.56,300.55,359.51,300.3,355.34ZM284.36,463.63c0,3.59-.57,7,.2,10.07a7.82,7.82,0,0,0,4.6,4.85c9,2.38,11.1.57,11.06-8.63,0-1.95,0-3.91,0-6.29Zm32.22-122.12c-3.45-1.6-6.44-4.28-8.89-3.86-5.79,1-11-.16-16.42-1.49-1.95-.48-5.57.09-6.19,1.32-.93,1.83-.77,5.57.54,6.84,1.51,1.47,4.78,1.5,7.26,1.45,1.44,0,2.78-1.65,4.3-2.22,2.53-1,4.78-1.57,6.58,1.83s5.07,2.08,7.67.61C312.94,345.13,314.13,343.68,316.58,341.51Zm-35.3,54.36c0,3.26,0,5.87,0,8.47-.14,11.35.52,11.88,12,9.47a22.85,22.85,0,0,0,2.46-.88c-.35-5,.14-10.31-1.52-14.87-.56-1.55-6.55-1.11-10.06-1.6C283.49,396.37,282.87,396.2,281.28,395.87Zm203,23.48c-.25,4-.58,7.16-.62,10.29-.08,7.42,0,7.18,7.34,7.23,4.43,0,6.06-1.68,5.65-5.91a21.74,21.74,0,0,1,0-5c.57-4.34-1.93-6.07-5.61-6.59A51.63,51.63,0,0,0,484.23,419.35Zm28.22,52.25,11.08-2.87c.31-4.88.74-9.31.75-13.74,0-.93-1.43-2.4-2.45-2.68-1.7-.46-3.61-.09-5.42-.21-3-.22-4.11,1.1-4,4.08C512.57,461,512.45,465.73,512.45,471.6Zm-28.84-64a24.51,24.51,0,0,1,0,3c-.49,4.21.4,7.13,5.56,6.93,4.92-.19,6-1.27,5.94-7.11,0-2.3-.43-4.62-.28-6.91.36-5.23-2.89-5.15-6.68-5.16-4.38,0-4.77,2.5-4.53,5.82C483.69,405.31,483.62,406.47,483.61,407.63Zm54,8.37a62.71,62.71,0,0,0-7.73.1c-1.13.14-2.91,1.26-3,2.14-.66,4.44-.87,8.94-1.25,13.6,14-1.58,14-1.58,12.77-14.68C538.36,417,538.2,416.89,537.62,416ZM279.16,464.22a71.27,71.27,0,0,0-8.57.09c-1.89.24-5.29,1.42-5.24,2,.25,3.5.17,8.31,2.33,10.06,2.74,2.24,7.5,2,11.48,2.81Zm227.4-97.81-3-4.16-11.77,2.68c3.06,6.68,3.06,6.68,14,8.9,4.76,1,8-1.43,8.63-6.28.37-3.11-1.57-4.71-4.53-3.55A18.93,18.93,0,0,0,506.56,366.41Zm-183.1,75.46c0-7.63,0-14.9,0-22.17,0-3.87-2.88-3.73-5.27-3.15-1.23.3-3,2.09-3,3.16.16,5.6,1.08,11.17,1.21,16.76C316.52,440.89,318.52,442.33,323.46,441.87Zm-6.7,31,1.43.38c6.47-8.18,4.78-18.15,5.73-27.81h-7.16ZM523.6,416.41H513.05v15.85H523.6ZM491.18,352.1l-1.49.28c-.66,2.55-.56,5.74,2.18,6.6,2.42.76,5.3,5.43,8.38.35,1.38-2.27,3.45-2.76,5.59-.09a4.28,4.28,0,0,0,4.14.58c3.89-2.48,6-6.1,5.62-11.64-1.87,1.56-3.19,2.76-4.62,3.81s-2.64,2.4-4,2.49c-4.77.31-9.56.11-14.61.11Zm21.88,62.84c3.74-1.4,8.41-1.82,9.1-3.7a19.6,19.6,0,0,0,0-12.05c-.43-1.33-5.7-1.11-9.13-1.66Zm-.4,34.7c11.69-.73,12.78-2.25,10.91-14a57,57,0,0,0-8.26.12c-1.18.18-3,1.69-3.08,2.67A107.74,107.74,0,0,0,512.66,449.64Zm25.89-9c.07-5.11-.56-5.45-8.74-5.51-3.85,0-3.26,2.94-3,4.88.43,2.93-1.58,7.61,4.07,7.78S538.48,445.92,538.55,440.6Zm-9.33,25.24c8.44-3.11,10.2-7,7.25-15.63C526.35,450.19,525.45,452.06,529.22,465.84Zm-214-51.9c8.49,1.33,8.94.92,8.17-6.84-.11-1.15-.34-2.29-.47-3.44-.76-6.42-.93-6.55-7.7-5.65Zm222-3c-.51-3.16-.54-5.88-1.5-8.22-.48-1.19-2.57-2.22-4-2.39s-4.53.61-4.61,1.25a100.83,100.83,0,0,0-.21,11.65ZM292.42,372.84c0,7.31-.05,7.26,6.53,6.52a33.9,33.9,0,0,1,6.45-.09c3.77.32,5.05-1.38,4.48-5.45Zm6.95-28.07c-4.56,5.47-10.5,3.84-16.32,3.78,4,1.88,2,10.54,9,7.87C297.6,354.32,300.44,349.6,299.37,344.77Zm208.54,32.46-12.81-3.32v7.79C503.72,384,507.22,382.92,507.91,377.23ZM497.06,507.32c.08.49.29,1.87.53,3.44,3.87,0,7.35.17,10.8-.11a4,4,0,0,0,2.7-2.27c.3-.81-.58-3-.94-3a72,72,0,0,0-9,.63A24.67,24.67,0,0,0,497.06,507.32Zm-183.94-156-1.32-1.72c-2.79,1-6.48,1.25-8.11,3.21-1.35,1.63-.27,5.27-.27,8l2,.71Zm193.42-5.21L495,347.17c.14.85.49,4.43.76,4.43a36.19,36.19,0,0,0,9.45-1.34C506,350,506.1,347.57,506.54,346.12ZM302.37,506h14C311.57,502.25,305.89,502.12,302.37,506Z" transform="translate(-162.48 -47.79)"/><path class="cls-2" d="M400.08,53.9c-.16,1,0,2.24-.54,2.88-4.94,5.76-2.8,10.93,1,16.18,2.64,3.66,2,5.84-2,7.35-9.26,3.45-18.56,6.78-27.85,10.12a8.76,8.76,0,0,1-2.46.36c-13,.74-26.1,1.36-39.13,2.21-17.49,1.15-35,2.56-52.46,3.7-13.38.88-26.84.91-40.13,2.43-14.71,1.68-29.27,4.62-43.89,7l-7.65,1.26c-.09,1.35-.26,2.79-.26,4.24,0,11.64-.36,23.29.14,34.91.48,11.12,1.94,22.19,2.82,33.29.92,11.52,1.63,23.06,2.48,34.58,1.15,15.47,2.38,30.94,3.52,46.42.78,10.71,1.35,21.44,2.25,32.15q1.83,21.94,4,43.87c1.17,11.85,2.66,23.67,3.8,35.52,1.18,12.17,2.26,24.35,3.13,36.54.8,11.22,1.07,22.48,1.94,33.69,1.34,17.29,3,34.55,4.51,51.83.63,7.25,1.6,14.52,1.5,21.76,0,2.66-2.61,5.35-4.25,7.89-1.46,2.29-3.23,4.38-5.6,7.54,7.76.93,14.28,1.26,20.61,2.53,27.84,5.58,55.94,1.94,83.9,2.58,28.25.65,56.52.1,84.78.09,62.85,0,125.69.12,188.53-.2,8.29,0,16.58-2.43,24.86-3.73v5h-424V53.9Z" transform="translate(-162.48 -47.79)"/><path class="cls-2" d="M607.59,527.92c-6.09,0-8.65-5.45-12.88-8.32-1.08-.74-1.87-1.9-2.91-2.7-5.56-4.26-6.18-5-1.76-10.28,5.58-6.72,6.92-14,6.53-22.36-.49-10.45,0-20.94-.11-31.41C596,406.4,595.2,360,595.13,313.51c0-14.64,1.93-29.28,2.81-43.93.44-7.29.59-14.59.7-21.9.39-27.56.68-55.12,1.07-82.68.14-9.3.42-18.59.72-27.88.29-8.93.54-17.88,1.15-26.79a26.23,26.23,0,0,1,2.39-8c1.39-3.28,1-5.53-2.76-6.37-12.41-2.78-24.9-5.23-37.22-8.33-17.33-4.37-35.1-3.72-52.66-5.5-27.67-2.8-55.33-2.54-83-2-6.56.13-13.11.91-21.5,1.53,1.54-5.24,1.88-9.71,4.05-13,2.45-3.67,2.72-6.73,1.24-10.49a31.23,31.23,0,0,1-1-4.32H607.59Z" transform="translate(-162.48 -47.79)"/><path class="cls-2" d="M408.07,53.9a28.55,28.55,0,0,1,.9,5.18,14.84,14.84,0,0,1-1.05,6c-.28.61-3,.85-4,.23-2.28-1.49-4.68-3.3-3.28-6.8.6-1.48,1-3.06,1.43-4.6Z" transform="translate(-162.48 -47.79)"/><path class="cls-3" d="M579.17,498.77V481.19l-16.85,10.68c-.46-4.82-1.15-9.31-1.29-13.81-.4-12.95-1.09-25.93-.69-38.86.3-9.88,2.34-19.7,3.16-29.59,1.13-13.69,2.06-27.41,2.66-41.14.4-9.3.18-18.62,0-27.93-.05-3.28.89-4.64,4.42-5s7.2-2,10.79-3.09c3.83-1.16,3.43-3.6,1.53-6.06a56,56,0,0,0-5.49-5.73c-14.24-13.74-28.46-27.51-42.78-41.16q-19.18-18.29-38.57-36.36-18.81-17.56-37.78-35c-11-10-22.09-19.83-33.18-29.69-1.23-1.09-2.67-2.63-4.09-2.72-10.09-.65-8.18-8.61-8.72-14.57-1.11-12.36-1.66-24.77-2.36-37.16-.17-3.15.07-6.31-.05-9.46-.32-8.28-.68-16.56-1.14-24.84-.17-3.21.77-4.91,4.33-5.07,8.25-.37,16.49-1.42,24.75-1.49,17.78-.14,35.58-.28,53.34.43,11.88.47,23.7,2.36,35.54,3.66,11.67,1.28,23.4,2.13,35,4.06,9.77,1.63,19.36,4.38,28.93,7,1.53.42,3.54,2.88,3.57,4.43.34,18.07.34,36.15.42,54.23,0,1.16-.19,2.32-.2,3.48-.26,26.25-.38,52.51-.79,78.77-.35,22.06-1.24,44.11-1.51,66.17q-.86,69.51-1.22,139c-.07,14.24.56,28.49,1.25,42.71.25,5.1-.86,8.33-6.36,9.17C583.9,496.62,582.13,497.65,579.17,498.77Z" transform="translate(-162.48 -47.79)"/><path class="cls-3" d="M215.89,314.17c6.46.52,11.55,1,16.66,1.3,3.49.18,5.16,1.09,5.27,5.24.71,25.67,1.75,51.34,2.74,77,.7,18.24,1.39,36.49,2.3,54.73.68,13.72,1.71,27.43,2.54,41.14.14,2.3,0,4.62,0,7.91l-16.15-5.61c1.58,8.11,2.46,15.42-9.16,13.74-.59-5.45-1.21-11-1.77-16.53-1.53-15-3.09-29.92-4.51-44.89-.35-3.63-.16-7.31-.33-11-.69-14.71-1.11-29.44-2.21-44.12-1-13.68-2.83-27.29-4.25-40.94-1.16-11.18-2.27-22.37-3.4-33.56-1.5-15-3.11-29.92-4.46-44.9-.78-8.75-1.12-17.54-1.68-26.31-.8-12.56-1.69-25.12-2.4-37.69q-1.42-25.3-2.63-50.62c-.67-13.74-1.2-27.5-1.92-41.24-.23-4.28,1-7,5.65-7.69,11-1.55,21.9-3.48,32.89-4.86,22-2.76,43.91-6.12,66-7.63,23.11-1.57,46.35-1.26,69.54-1.76.28,0,.57.28,1.45.74-.19,3.79.32,8.07-.76,11.89-2.2,7.82-9.08,9.82-16.11,11.18-4.87.94-9.75,1.84-14.59,2.91-3.59.79-6,2.61-5.29,6.88,2.29,14.18,4.23,28.43,6.89,42.54,1.15,6.13,4.07,7.27,10.14,4.75a89.29,89.29,0,0,0,15-7.6c6.65-4.42,14.28-7.93,18-15.74,1-2.06,2.29-4.08,2.74-6.27,2.4-11.67,12.15-14.28,21.55-13.56a4,4,0,0,1,2.7,2.78c1.31,12.19,2.52,24.39,3.39,36.61a6.58,6.58,0,0,1-2.8,5c-25.63,15.71-51.62,30.85-77,46.94-17.16,10.88-33.85,22.58-50.1,34.76-18.63,14-36.56,28.88-54.78,43.4a61.8,61.8,0,0,0-6.78,5.81C217.19,310.07,216.86,311.93,215.89,314.17Z" transform="translate(-162.48 -47.79)"/><path class="cls-4" d="M209.82,529.26A46.08,46.08,0,0,1,224.59,516a13.44,13.44,0,0,1,3.27-1.19c4.82-1.33,8.38-3.48,6.8-10.63,4.12,1.7,8.22,3.42,12.35,5.09,1.74.71,3.54,1.92,5.29,1.87,14.75-.37,29.49-1,44.24-1.5,3.46-.11,6.94,0,10.39.28,9.85.67,19.34-1.63,29-2.85a268.94,268.94,0,0,1,35.69-1.63c15.55.12,31.11,1.69,46.66,1.54,23.37-.22,46.73-1.39,70.1-2.15,1.78-.06,3.56,0,5.22,0,.41,2.58.24,4.79,1.16,6.36s3,3.59,4.51,3.57c6.81-.09,14,1.8,20.28-2.61.57-.4,1.91.3,4.08.73-1.34-3.22-2.35-5.63-3.74-9,5.07-.31,9.73-.65,14.39-.89,7.45-.37,14.94-.37,22.32-1.24,2-.24,4.2-2.73,5.58-4.7,3.28-4.72,7.39-8.07,14.13-10.5-1.1,4.15-2,7.2-2.68,10.31a31.49,31.49,0,0,0-.23,5.25c1.88.05,3.83.46,5.62.09,4-.83,7.87-2.05,11.8-3.11l.89,1.21a58.73,58.73,0,0,1-3.83,5.8c-5.06,6.06-5.35,8.33-1.38,15.07,1,1.68,2.18,3.24,4,6-4,.75-7.22,1.75-10.48,1.88-7.11.29-14.24.16-21.36.16-33.41,0-66.82-.14-100.22,0-14.94.06-29.88.59-44.81.92-25.53.57-51.07,1.22-76.6,1.71-20.92.41-41.84.9-62.76.86-17.08,0-34.15-.68-51.22-1.3C219,531.25,215,530.13,209.82,529.26Z" transform="translate(-162.48 -47.79)"/><path class="cls-5" d="M358.5,275.2c-2.63,1-5.42,1.72-7.82,3.12-1.6.93-2.65,2.82-3.95,4.28l4.39,3.26c.5.37,1,.71,2.86,2-10.65.49-18.85,3.88-25.9,11.89.44-11.95,6.91-18.49,13.66-24.93-8.06,4.07-13.59,10.3-15.5,19.24s0,11.32,9.59,10.87c19.34-.91,38.66-2.49,58-3.17,7.39-.26,14.83,1.29,22.26,1.78,4.87.33,9.77.27,14.66.33a214.72,214.72,0,0,0,43.56-3.45c10.62-2.05,21.47.39,31.87,3.36,1.25.36,2.3,3.43,2.44,5.31.79,10.8,1.28,21.62,1.93,33.44l-6.9-5.2c-1.36,2.08-2.71,4.17-4.5,6.93-4.68-6.68-21.25-6.54-29.59-6.74-15.07-.37-30.13-1.34-45.2-1.52-9.73-.11-19.47.77-29.2,1.18-1.81.08-8-.31-16-.13-19.76.46-39.54.43-59.31.46a4.56,4.56,0,0,1-3.38-1.93c-3.76-6.85-6.77-7.34-10.78-2.86-5.23.27-9.29.67-13.35.62-1.82,0-4.9-.49-5.22-1.48-2.51-7.56-4.47-15.3-7-24.32,9.53,0,17.45-.14,25.35,0,5.56.14,9.7-.81,11.73-7.09,1.86-5.76,5.11-11.07,7.76-16.57,5.45-11.32,15.45-17.44,26.28-22.28,21.24-9.5,43.44-14.3,66.78-11.16,24,3.24,41.07,16.23,51.13,38.3.36.78.16,1.82.32,4.36-6.37-7.74-12.13-14.08-17.12-21s-11.29-10.34-19.62-10.67c-12.41-.5-24.84-1.69-37.23-1.43-9.47.2-18.91,2.18-28.35,3.44a7.94,7.94,0,0,0-2.67,1.26,1.55,1.55,0,0,0-.56.63l25.76-2.71-6.2,16.55c-7.61-6.39-15.84-9.17-25.15-3.92Z" transform="translate(-162.48 -47.79)"/><path class="cls-5" d="M491.9,349.31l-6.33-2c1,7,2,13.37,3,20.4-1.29.09-2.83.29-4.38.29-22.77,0-45.55.24-68.32,0-32.63-.39-65.26-1.14-97.88-1.75-.81,0-1.61-.18-3.52-.4.86-4.71,1.62-9.16,2.52-13.57.18-.94,1.25-1.77,1.25-2.65-.05-8.14,6-8.07,11.39-8.24,20.41-.64,40.82-1.08,61.23-1.56,14.93-.35,29.87-1.2,44.78-.83,15.21.38,30.38,2,45.57,3.06,2,.13,4,.06,6,.21C492.17,342.64,492.87,343.65,491.9,349.31Zm-117.61,9.26c2.27-2.7,4.59-4.3,4.41-5.54-.22-1.59-2.45-2.9-3.82-4.33-1.29,1.43-3.17,2.68-3.64,4.35C370.93,354.13,372.67,355.8,374.29,358.57Zm45.83-7.39c-1.51,2.14-2.78,3.36-3.18,4.83-.15.53,2,2.51,2.69,2.3a6,6,0,0,0,3.52-3C423.42,354.66,421.61,353.14,420.12,351.18Zm-69.79,6.88,2,0q.48-2.73,1-5.46l-6.32-1Zm115.14-1.21,1.12,1.93,5.25-2.06c-.77-1.09-1.54-2.17-2.3-3.26Z" transform="translate(-162.48 -47.79)"/><path class="cls-6" d="M411.39,465.22v30.91c0,6.64-.28,6.88-7.08,6.86-10.14,0-20.28-.12-30.41.06-3.67.07-5.29-.95-5.63-4.92-1.66-19.75-3.66-39.48-5.45-59.22-1-11.19-1.71-22.42-2.8-33.6-.44-4.49,1.71-6.69,5.62-7,8.74-.65,17.51-1,26.28-1.21,2.8-.09,5.61.53,8.43.63,8.44.29,8.88.47,9.39,9.25.71,12.42,1.18,24.85,1.57,37.28.21,7,0,14,0,20.94ZM405,455.33c-.84-1.07-3.07-2.6-3.13-4.21-.21-5.95.43-11.92.48-17.89.06-7.41,0-14.82-.39-22.22-.05-1-2-2.87-3-2.82-9.09.44-18.15,1.32-27.24,1.83-3.31.18-4.18,1.65-4.08,4.71.27,8.44.08,16.91.58,25.34.25,4.25,1.59,8.44,2.43,12.66a33.85,33.85,0,0,0-.57-13.32c-2.28-7.87-1-15.41.82-23a3.31,3.31,0,0,1,2.22-2.11c7.07-.15,14.15-.24,21.2.09a5.43,5.43,0,0,1,3.89,3.17,40.68,40.68,0,0,1,1.5,10.19c.19,6.81-.27,13.65.09,20.44.26,4.86-1.88,5.62-6,5.11a61.4,61.4,0,0,0-10.92-.46c-1.58.1-3.08,1.55-4.61,2.39,1.38,1.09,2.7,3,4.16,3.12,5,.39,10.13.15,16.64.15-.35,9.22-.59,18.31-1.17,27.37a4.36,4.36,0,0,1-3,3,71.41,71.41,0,0,1-12.4-.5,4.88,4.88,0,0,1-3.17-3c-1.32-4.78-2.12-9.7-3.26-14.54-1.24-5.25-2.65-10.46-4-15.69l-1.41.32c2,11,3.88,22,6.13,33,.25,1.21,2.5,2.73,3.93,2.85,6.11.51,12.27.46,18.39.81,3,.18,4.16-.83,4.1-3.91-.15-8.31-.2-16.63,0-24.93C403.3,460.72,404.34,458.24,405,455.33Z" transform="translate(-162.48 -47.79)"/><path d="M400.26,391.92c-12.44,1.62-24.9,3.06-37.3,4.94-6.36,1-8,2.95-7.53,9.38,1.19,14.5,2.93,28.95,4.36,43.44.56,5.59.83,11.2,1.34,16.8,1,10.51,2.05,21,2.91,31.54.11,1.4-.84,2.89-1.29,4.33-1.08-1.21-2.84-2.29-3.11-3.67-1.65-8.59-3.26-17.22-4.32-25.91-2-16.07-4-32.17-5.14-48.31-.75-10.41,0-20.92,0-31.38,0-3,1.3-4,4.17-4.2,12.06-.74,24.13-2.55,36.16-2.26,18.35.44,36.68,2.2,55,3.66a29.22,29.22,0,0,1,9,2.74c3.89,1.69,6,4.33,5.6,9.24-1.42,17-2.44,34-3.48,51-.69,11.23-1.11,22.49-1.71,33.73-.2,3.62-.18,7.33-1,10.83-1.12,4.77-5.43,3.61-8.67,3.43-3.76-.22-2.26-2.77-1.91-5.13.92-6.05,1.19-12.2,2-18.27,1.34-10,3-19.88,4.36-29.84,1.81-13.09,3.5-26.21,5.24-39.32.11-.82-.21-2,.23-2.43,5.3-5.68-.05-6.21-3.58-7.21a155.11,155.11,0,0,0-51.13-5.72Z" transform="translate(-162.48 -47.79)"/><path class="cls-5" d="M500,500c-1.26-9.33-2.49-18.41-3.75-27.73-1.94-.77-4.41-1.59-6.74-2.69-3-1.4-6.45-8.88-5.22-11.81.46-1.1,2.4-1.93,3.81-2.21a85,85,0,0,1,8.47-.92l0-1.67c-2.64,0-5.3-.16-7.93,0-3.23.25-4.62-1.13-4.55-4.28a23.17,23.17,0,0,0-.26-2.48c-.59-7.06-.59-7.06,6.64-7.05,7.64,0,7.83-.2,7.8-7.79,0-5.65.17-11.3-.05-16.94-.3-7.76-.92-15.51-1.35-23.26-.11-1.94,0-3.89,0-5.83a6.27,6.27,0,0,1,1.78-.42c10.8,1.52,10.83,1.53,10.9,12.53q.28,47.08.53,94.17C510.07,500.52,510,500.69,500,500Z" transform="translate(-162.48 -47.79)"/><path class="cls-7" d="M358.35,275.32c2,.11,4,.55,5.93.27,10.85-1.62,17.88,3.61,23.17,12.38a7.18,7.18,0,0,0,3.84,2.65c-3.55-7.5-2.88-15-.86-22.23.74-2.67,3.74-4.72,6.22-7.66,5.35,9.16,1.61,18.06,3.58,26.68l36.32-11.57.59,1.51c-5.82,8-16.69,8-23.93,13.74l.23,1.5,36,3.47.64,1.1c-1.94,1-3.84,2.86-5.83,2.95-10.08.49-20.17.56-30.26.71-1.65,0-3.31-.48-4.94-.36-3.24.25-5.26-.43-5.92-4.2s-4.92-4.52-8.81-2.65c-3.64,1.75-7.47,3.95-11.35,4.24-14.82,1.09-29.7,1.55-44.56,2.06-1.37,0-2.78-1.13-4.17-1.75,1-1.14,1.73-2.71,3-3.34,11.16-5.71,23-5.28,34.91-3.47a55.15,55.15,0,0,0,9.26,1.09c-7.67-8.35-18.75-7.68-28.49-10.49l-1.42-1.8,7-4.95Z" transform="translate(-162.48 -47.79)"/><path class="cls-6" d="M413.25,398l10.59,1.76c6.36,1,12.69,2.76,19.07,3,6.55.22,6.81,4.72,6.7,8.7-.26,8.72-1.28,17.41-2.22,26.09-1.16,10.66-2.54,21.3-3.84,31.94-1.18,9.66-2.2,19.34-3.77,28.93-.24,1.48-3,3.52-4.65,3.64-6.08.45-12.21.18-19,.18C411.83,468.23,413.74,433.61,413.25,398Zm8.18,10.31c0,11.31,0,22.18,0,33.05,0,4.05.85,8.4-.39,12-.87,2.52-2,4,.06,6.27.66.72.6,2.19.68,3.33.68,9.53,1.19,19.08,2.14,28.59.12,1.16,2.48,2.76,4,3,2,.28,4.16-.63,6.26-1,3.13-.54,4.68-1.85,4.72-5.56.07-7.42.89-14.85,1.44-22.27,1.17-15.59,2.45-31.17,3.46-46.77.11-1.68-.7-4.18-2-5.06C435.87,409.73,429.26,407.38,421.43,408.34Z" transform="translate(-162.48 -47.79)"/><path class="cls-5" d="M311,382.19c.39,8.2.91,15.63,1.08,23.07.46,20.4.78,40.81,1.17,61.22.18,9.45.34,18.9.63,28.35.1,3.19-.9,5.67-4.3,4.86-1.39-.33-2.94-3.12-3.12-4.93-1.64-16.76-3-33.56-4.44-50.35q-1.79-21-3.53-42c-.39-4.79-.57-9.58-1-14.36-.4-4.38,1.61-6.08,5.8-5.88C305.69,382.28,308.15,382.19,311,382.19Z" transform="translate(-162.48 -47.79)"/><path class="cls-7" d="M424.29,289.05a82.36,82.36,0,0,0,8.76-3.34,60.17,60.17,0,0,0,10.26-6.32c1.21-1,1.19-3.48,1.73-5.29-1.8-.44-3.72-1.53-5.38-1.21-5.48,1-10.91,2.42-16.28,4-6.95,2-13.82,4.29-21.17,6.59V262.77c10.5,1,20.34,1.87,30.17,2.82a50.18,50.18,0,0,1,7.36,1.05c2.14.55,4.79,1.05,6.12,2.54,6,6.72,11.65,13.72,17.22,20.78a4.92,4.92,0,0,1,.47,4.34c-.4.81-2.63,1.19-3.92,1-8-1.29-15.92-2.95-23.91-4.2a110.8,110.8,0,0,0-11.11-.68Z" transform="translate(-162.48 -47.79)"/><path class="cls-5" d="M392.76,121.93c-1,1.5-1.18,2.32-1.62,2.47-12,4-19.06,14.25-27.66,22.43A64.29,64.29,0,0,1,341.16,161c-3.29,1.21-4.79.57-5.7-3.44-1.14-4.95-.35-7,4.87-7.74,3.7-.5,7.29-2,10.87-3.27,8.3-2.88,13.58-9.51,19.16-15.74,1.53-1.71,3-3.5,4.5-5.19,3-3.25,6.39-5,11-3.8C387.71,122.32,389.76,121.93,392.76,121.93Z" transform="translate(-162.48 -47.79)"/><path class="cls-5" d="M278.25,415.73v23.18c-4.47,0-9.55.12-14.6-.12a3.56,3.56,0,0,1-2.31-2.5c-.5-5.25-.83-10.52-.83-15.79,0-.93,1.69-2.47,2.81-2.68C268,416.94,272.7,416.47,278.25,415.73Z" transform="translate(-162.48 -47.79)"/><path class="cls-5" d="M281.24,426.41c-.09-9.55-.06-9.24,9.69-10.21,4.75-.47,6.25.85,6.05,5.45a112,112,0,0,0,.49,12.41c.19,2.72-1,3.78-3.6,4.22C281.78,440.3,281.38,440,281.24,426.41Z" transform="translate(-162.48 -47.79)"/><path class="cls-5" d="M278.61,451.71c-.1,9.89-1.12,10.69-11.17,10.85-3.15.05-4.75-.9-5-3.87-.41-4.44-.64-8.89-1-13.34-.2-2.92,1.3-4.26,4.1-4.37.66,0,1.32,0,2,0C278.14,440.55,278.72,441.12,278.61,451.71Z" transform="translate(-162.48 -47.79)"/><path class="cls-5" d="M379.25,103.89c2.9,3.25.49,7.24-1,7.73-9.39,3.18-14.73,11.47-22.36,16.81-5.67,4-11.8,5.56-18.31,6.51-1,.15-3.2-.87-3.17-1.23.09-1.43.44-3.45,1.45-4.11a43.76,43.76,0,0,1,9.18-4.65c7.86-2.8,15.89-4.58,21.48-12.07C369.49,109,374.86,106.88,379.25,103.89Z" transform="translate(-162.48 -47.79)"/><path class="cls-5" d="M282.74,450.76c0-9.72-.06-9.54,9.68-8.76,4.39.36,6.28,2.19,5.95,6.51-.08,1,.15,2,.06,3-.23,2.73,0,7.55-.95,7.81-4.15,1.13-8.67,1-13.06,1.06-.56,0-1.46-2-1.6-3.16A53,53,0,0,1,282.74,450.76Z" transform="translate(-162.48 -47.79)"/><path class="cls-5" d="M277.37,397v16.86l-17.3.82c1.24-5.56,2.08-10.05,3.33-14.41a4.35,4.35,0,0,1,3-2.4C269.82,397.33,273.28,397.28,277.37,397Z" transform="translate(-162.48 -47.79)"/><path class="cls-5" d="M300.3,355.34c.25,4.17.43,7.22.66,11.14l9.1-5.41c2.67,7.06.81,10.1-5.81,9.85a122.11,122.11,0,0,1-14.13-1.45c-1.14-.17-2.4-1.5-3.06-2.62-3.66-6.23-3.39-6.53,3.5-6.79,1.61-.06,3.19-1.29,4.75-2.06S298.17,356.49,300.3,355.34Z" transform="translate(-162.48 -47.79)"/><path class="cls-5" d="M284.36,463.63h15.86c0,2.38,0,4.34,0,6.29,0,9.2-2,11-11.06,8.63a7.82,7.82,0,0,1-4.6-4.85C283.79,470.63,284.36,467.22,284.36,463.63Z" transform="translate(-162.48 -47.79)"/><path class="cls-5" d="M316.58,341.51c-2.45,2.17-3.64,3.62-5.15,4.48-2.6,1.47-5.84,2.85-7.67-.61s-4.05-2.79-6.58-1.83c-1.52.57-2.86,2.19-4.3,2.22-2.48.05-5.75,0-7.26-1.45-1.31-1.27-1.47-5-.54-6.84.62-1.23,4.24-1.8,6.19-1.32,5.44,1.33,10.63,2.49,16.42,1.49C310.14,337.23,313.13,339.91,316.58,341.51Z" transform="translate(-162.48 -47.79)"/><path class="cls-5" d="M281.28,395.87c1.59.33,2.21.5,2.84.59,3.51.49,9.5.05,10.06,1.6,1.66,4.56,1.17,9.91,1.52,14.87a22.85,22.85,0,0,1-2.46.88c-11.44,2.41-12.1,1.88-12-9.47C281.31,401.74,281.28,399.13,281.28,395.87Z" transform="translate(-162.48 -47.79)"/><path class="cls-5" d="M484.23,419.35a51.63,51.63,0,0,1,6.75,0c3.68.52,6.18,2.25,5.61,6.59a21.74,21.74,0,0,0,0,5c.41,4.23-1.22,5.94-5.65,5.91-7.36-.05-7.42.19-7.34-7.23C483.65,426.51,484,423.38,484.23,419.35Z" transform="translate(-162.48 -47.79)"/><path class="cls-5" d="M512.45,471.6c0-5.87.12-10.65-.05-15.42-.1-3,1-4.3,4-4.08,1.81.12,3.72-.25,5.42.21,1,.28,2.45,1.75,2.45,2.68,0,4.43-.44,8.86-.75,13.74Z" transform="translate(-162.48 -47.79)"/><path class="cls-5" d="M483.61,407.63c0-1.16.08-2.32,0-3.46-.24-3.32.15-5.84,4.53-5.82,3.79,0,7-.07,6.68,5.16-.15,2.29.26,4.61.28,6.91,0,5.84-1,6.92-5.94,7.11-5.16.2-6-2.72-5.56-6.93A24.51,24.51,0,0,0,483.61,407.63Z" transform="translate(-162.48 -47.79)"/><path class="cls-5" d="M537.62,416c.58.89.74,1,.75,1.16,1.23,13.1,1.23,13.1-12.77,14.68.38-4.66.59-9.16,1.25-13.6.13-.88,1.91-2,3-2.14A62.71,62.71,0,0,1,537.62,416Z" transform="translate(-162.48 -47.79)"/><path class="cls-5" d="M279.16,464.22v14.94c-4-.83-8.74-.57-11.48-2.81-2.16-1.75-2.08-6.56-2.33-10.06-.05-.56,3.35-1.74,5.24-2A71.27,71.27,0,0,1,279.16,464.22Z" transform="translate(-162.48 -47.79)"/><path class="cls-5" d="M506.56,366.41A18.93,18.93,0,0,1,510,364c3-1.16,4.9.44,4.53,3.55-.58,4.85-3.87,7.24-8.63,6.28-11-2.22-11-2.22-14-8.9l11.77-2.68Z" transform="translate(-162.48 -47.79)"/><path class="cls-5" d="M323.46,441.87c-4.94.46-6.94-1-7-5.4-.13-5.59-1.05-11.16-1.21-16.76,0-1.07,1.75-2.86,3-3.16,2.39-.58,5.25-.72,5.27,3.15C323.48,427,323.46,434.24,323.46,441.87Z" transform="translate(-162.48 -47.79)"/><path class="cls-5" d="M316.76,472.85V445.42h7.16c-.95,9.66.74,19.63-5.73,27.81Z" transform="translate(-162.48 -47.79)"/><path class="cls-5" d="M523.6,416.41v15.85H513.05V416.41Z" transform="translate(-162.48 -47.79)"/><path class="cls-5" d="M491.18,352.1l1.15,2.49c5.05,0,9.84.2,14.61-.11,1.4-.09,2.76-1.54,4-2.49s2.75-2.25,4.62-3.81c.41,5.54-1.73,9.16-5.62,11.64a4.28,4.28,0,0,1-4.14-.58c-2.14-2.67-4.21-2.18-5.59.09-3.08,5.08-6,.41-8.38-.35-2.74-.86-2.84-4.05-2.18-6.6Z" transform="translate(-162.48 -47.79)"/><path class="cls-5" d="M513.06,414.94V397.53c3.43.55,8.7.33,9.13,1.66a19.6,19.6,0,0,1,0,12.05C521.47,413.12,516.8,413.54,513.06,414.94Z" transform="translate(-162.48 -47.79)"/><path class="cls-5" d="M512.66,449.64a107.74,107.74,0,0,1-.43-11.2c0-1,1.9-2.49,3.08-2.67a57,57,0,0,1,8.26-.12C525.44,447.39,524.35,448.91,512.66,449.64Z" transform="translate(-162.48 -47.79)"/><path class="cls-5" d="M538.55,440.6c-.07,5.32-2.07,7.31-7.64,7.15s-3.64-4.85-4.07-7.78c-.29-1.94-.88-4.9,3-4.88C538,435.15,538.62,435.49,538.55,440.6Z" transform="translate(-162.48 -47.79)"/><path class="cls-5" d="M529.22,465.84c-3.77-13.78-2.87-15.65,7.25-15.63C539.42,458.81,537.66,462.73,529.22,465.84Z" transform="translate(-162.48 -47.79)"/><path class="cls-5" d="M315.23,413.94V398c6.77-.9,6.94-.77,7.7,5.65.13,1.15.36,2.29.47,3.44C324.17,414.86,323.72,415.27,315.23,413.94Z" transform="translate(-162.48 -47.79)"/><path class="cls-5" d="M537.27,411l-10.36,2.29a100.83,100.83,0,0,1,.21-11.65c.08-.64,3.07-1.43,4.61-1.25s3.56,1.2,4,2.39C536.73,405.09,536.76,407.81,537.27,411Z" transform="translate(-162.48 -47.79)"/><path class="cls-5" d="M292.42,372.84l17.46,1c.57,4.07-.71,5.77-4.48,5.45a33.9,33.9,0,0,0-6.45.09C292.37,380.1,292.38,380.15,292.42,372.84Z" transform="translate(-162.48 -47.79)"/><path class="cls-5" d="M299.37,344.77c1.07,4.83-1.77,9.55-7.3,11.65-7,2.67-5-6-9-7.87C288.87,348.61,294.81,350.24,299.37,344.77Z" transform="translate(-162.48 -47.79)"/><path class="cls-5" d="M507.91,377.23c-.69,5.69-4.19,6.73-12.81,4.47v-7.79Z" transform="translate(-162.48 -47.79)"/><path class="cls-5" d="M497.06,507.32a24.67,24.67,0,0,1,4.06-1.3,72,72,0,0,1,9-.63c.36,0,1.24,2.18.94,3a4,4,0,0,1-2.7,2.27c-3.45.28-6.93.11-10.8.11C497.35,509.19,497.14,507.81,497.06,507.32Z" transform="translate(-162.48 -47.79)"/><path class="cls-5" d="M313.12,351.33l-7.66,10.22-2-.71c0-2.75-1.08-6.39.27-8,1.63-2,5.32-2.22,8.11-3.21Z" transform="translate(-162.48 -47.79)"/><path class="cls-5" d="M506.54,346.12c-.44,1.45-.56,3.9-1.35,4.14a36.19,36.19,0,0,1-9.45,1.34c-.27,0-.62-3.58-.76-4.43Z" transform="translate(-162.48 -47.79)"/><path class="cls-5" d="M302.37,506c3.52-3.85,9.2-3.72,14,0Z" transform="translate(-162.48 -47.79)"/><circle cx="174.19" cy="305.88" r="4.86"/><circle cx="200.52" cy="304.55" r="4.86"/><circle cx="224.43" cy="305.83" r="4.86"/><circle cx="249.63" cy="304.55" r="4.86"/><circle cx="275.25" cy="304.98" r="4.86"/><circle cx="308.14" cy="305.83" r="4.86"/><path d="M405,455.33c-.69,2.91-1.73,5.39-1.79,7.9-.21,8.3-.16,16.62,0,24.93.06,3.08-1.09,4.09-4.1,3.91-6.12-.35-12.28-.3-18.39-.81-1.43-.12-3.68-1.64-3.93-2.85-2.25-10.94-4.13-22-6.13-33l1.41-.32c1.34,5.23,2.75,10.44,4,15.69,1.14,4.84,1.94,9.76,3.26,14.54a4.88,4.88,0,0,0,3.17,3,71.41,71.41,0,0,0,12.4.5,4.36,4.36,0,0,0,3-3c.58-9.06.82-18.15,1.17-27.37-6.51,0-11.6.24-16.64-.15-1.46-.11-2.78-2-4.16-3.12,1.53-.84,3-2.29,4.61-2.39a61.4,61.4,0,0,1,10.92.46c4.08.51,6.22-.25,6-5.11-.36-6.79.1-13.63-.09-20.44a40.68,40.68,0,0,0-1.5-10.19,5.43,5.43,0,0,0-3.89-3.17c-7.05-.33-14.13-.24-21.2-.09a3.31,3.31,0,0,0-2.22,2.11c-1.82,7.59-3.1,15.13-.82,23a33.85,33.85,0,0,1,.57,13.32c-.84-4.22-2.18-8.41-2.43-12.66-.5-8.43-.31-16.9-.58-25.34-.1-3.06.77-4.53,4.08-4.71,9.09-.51,18.15-1.39,27.24-1.83,1-.05,3,1.79,3,2.82.36,7.4.45,14.81.39,22.22-.05,6-.69,11.94-.48,17.89C402,452.73,404.19,454.26,405,455.33Z" transform="translate(-162.48 -47.79)"/><path d="M421.43,408.34c7.83-1,14.44,1.39,20.37,5.56,1.26.88,2.07,3.38,2,5.06-1,15.6-2.29,31.18-3.46,46.77-.55,7.42-1.37,14.85-1.44,22.27,0,3.71-1.59,5-4.72,5.56-2.1.37-4.26,1.28-6.26,1-1.49-.2-3.85-1.8-4-3-1-9.51-1.46-19.06-2.14-28.59-.08-1.14,0-2.61-.68-3.33-2.07-2.28-.93-3.75-.06-6.27,1.24-3.62.39-8,.39-12C421.43,430.52,421.43,419.65,421.43,408.34Zm2.66,1.69c-.09,14.75.17,28.88,3.7,42.7,1.14,4.49,5.64,3.82,8.79,3.48,1.35-.15,3.29-3.44,3.39-5.38.57-10.74.72-21.5.84-32.25,0-1.26-.77-3.33-1.7-3.68C434.42,413.1,429.55,411.74,424.09,410Zm1.69,62.21-.2,0c.28,4.11.3,8.27,1,12.31.24,1.44,2.07,3.62,3.21,3.64,1.51,0,4.11-1.47,4.42-2.76,1.88-7.88,3.31-15.89,4.66-23.89.1-.58-1.54-2.08-2.41-2.12-10.3-.42-10.67,0-10.66,10.32Z" transform="translate(-162.48 -47.79)"/><path class="cls-5" d="M424.09,410c5.46,1.71,10.33,3.07,15,4.87.93.35,1.71,2.42,1.7,3.68-.12,10.75-.27,21.51-.84,32.25-.1,1.94-2,5.23-3.39,5.38-3.15.34-7.65,1-8.79-3.48C424.26,438.91,424,424.78,424.09,410Z" transform="translate(-162.48 -47.79)"/><path class="cls-5" d="M425.78,472.24v-2.48c0-10.33.36-10.74,10.66-10.32.87,0,2.51,1.54,2.41,2.12-1.35,8-2.78,16-4.66,23.89-.31,1.29-2.91,2.79-4.42,2.76-1.14,0-3-2.2-3.21-3.64-.68-4-.7-8.2-1-12.31Z" transform="translate(-162.48 -47.79)"/><path class="cls-8" d="M226.81,308.5c13.42-17.59,138.13-105.11,180.35-125.38.82-.39,3.6-2.39,4.84-1.64,1.93,1.17,2.34,13.63.19,15.39-27.53,22.48-127.83,70.54-150.07,103.68-1.79,2.67-6.59,10.69-16.57,11.55C241.49,312.45,224.53,311.49,226.81,308.5Z" transform="translate(-162.48 -47.79)"/><path class="cls-8" d="M576.74,326.72C565.39,315.41,469.4,218.55,422.08,184.14c-.73-.54-3.77-4-5.15-3.75-2.15.48-2.07,15.76,0,17.42,23.77,19.09,44.66,32.47,79.4,67.68,2,2.07,51.36,54.85,58.6,62.05C565.88,338.43,579.9,329.86,576.74,326.72Z" transform="translate(-162.48 -47.79)"/><path class="cls-9" d="M320.91,319.52l1.49-.25a1,1,0,0,1,.56,0,.37.37,0,0,1,.2.35l.15,1.45a1,1,0,0,1,0,.57c-.06.09-.22.15-.47.2l-.4,0-.36,0a.71.71,0,0,0-.63.45,3.07,3.07,0,0,0,0,1.28,7.49,7.49,0,0,0,.64,2.09,1.14,1.14,0,0,0,.41.49,1.75,1.75,0,0,0,.72.19q1.11.14,1.26,1c.1.6-.24,1.11-1,1.51a14.75,14.75,0,0,1-4,1.08c-2.78.48-4.27.16-4.45-1a.84.84,0,0,1,.07-.63,2.2,2.2,0,0,1,.69-.57,1.37,1.37,0,0,0,.59-1.21,14.57,14.57,0,0,0-.23-2.56,1.27,1.27,0,0,0-.35-.8,1,1,0,0,0-.8-.09,3,3,0,0,1-.84.07c-.13,0-.21-.12-.23-.29l-.16-1.53a.81.81,0,0,1,.05-.49,1.2,1.2,0,0,1,.55-.21.41.41,0,0,0,.38-.51,2.64,2.64,0,0,0-.46-.71,4.12,4.12,0,0,1-.89-1.91,3.12,3.12,0,0,1,.6-2.56,6.12,6.12,0,0,1,4-2.08,5.79,5.79,0,0,1,3.82.45,2.46,2.46,0,0,1,1.37,1.74,1.84,1.84,0,0,1-.3,1.41,1.75,1.75,0,0,1-1.19.75,2.77,2.77,0,0,1-1.77-.32c-.14-.08-.5-.35-1.07-.8a1.47,1.47,0,0,0-1.13-.37.8.8,0,0,0-.54.33.83.83,0,0,0-.14.63c.11.64.83,1.21,2.15,1.73a4.8,4.8,0,0,1,.84.4,1.66,1.66,0,0,1,.45.49A.42.42,0,0,0,320.91,319.52Z" transform="translate(-162.48 -47.79)"/><path class="cls-9" d="M332.55,315.82a5.93,5.93,0,0,1,3.6,1.07,3.19,3.19,0,0,1,1.09,1.31,5.34,5.34,0,0,1,.31,2l0,1.82a7,7,0,0,0,.27,2.46.84.84,0,0,0,.25.34,1.7,1.7,0,0,0,.52.13c.26,0,.39.22.39.52a2.11,2.11,0,0,1-.47,1.22,4.07,4.07,0,0,1-1.22,1.06,3.71,3.71,0,0,1-1.91.54,2.54,2.54,0,0,1-2-.88.69.69,0,0,0-.48-.32,1.22,1.22,0,0,0-.64.3,4.57,4.57,0,0,1-2.77.9,4.43,4.43,0,0,1-2.59-.69,3.19,3.19,0,0,1-1-1.18,3.26,3.26,0,0,1-.38-1.52,3,3,0,0,1,1-2.24,6.69,6.69,0,0,1,4.79-1.55,1.8,1.8,0,0,0,.89-.14c.12-.1.18-.31.18-.66a4.75,4.75,0,0,0-.27-1.87.92.92,0,0,0-.88-.58,1.08,1.08,0,0,0-.65.22,4.5,4.5,0,0,0-.72.81,3,3,0,0,1-2.27,1.55,1.34,1.34,0,0,1-1-.36,1.16,1.16,0,0,1-.38-.92,1.86,1.86,0,0,1,.47-1.18,4.13,4.13,0,0,1,1.27-1A9.78,9.78,0,0,1,332.55,315.82Zm-.82,7.06a1.21,1.21,0,0,0-.93.44,1.52,1.52,0,0,0-.4,1.05,1.49,1.49,0,0,0,.28.95.91.91,0,0,0,.75.36c.65,0,1-.55,1-1.65a2,2,0,0,0-.14-.9A.58.58,0,0,0,331.73,322.88Z" transform="translate(-162.48 -47.79)"/><path class="cls-9" d="M344.52,314.69q.69-.1.84.87l0,.21c0,.13,0,.23,0,.31.07.44.23.63.49.59s.32-.23.56-.62a4.74,4.74,0,0,1,1.45-1.44,5,5,0,0,1,2-.76,2.93,2.93,0,0,1,3,1c.25.33.45.49.58.47s.27-.21.55-.58a5,5,0,0,1,3.31-2.1,3.8,3.8,0,0,1,2.68.46,3.39,3.39,0,0,1,1.46,2.51c0,.26.1.7.18,1.31,0,.21.11.84.27,1.9.11.67.18,1.15.22,1.42s0,.29,0,.37a2,2,0,0,0,.7,1.27,3.24,3.24,0,0,1,.42.41.59.59,0,0,1,.12.3c.16,1-1,1.73-3.39,2.11a7.14,7.14,0,0,1-2.65,0c-.69-.15-1.07-.44-1.14-.86a.93.93,0,0,1,0-.38c0-.09.15-.33.36-.74s.15-1.48-.14-3.35a7.68,7.68,0,0,0-.59-2.23,1,1,0,0,0-1.18-.59,1.11,1.11,0,0,0-.67.36,1.09,1.09,0,0,0-.3.68A13.8,13.8,0,0,0,354,320a23.29,23.29,0,0,0,.51,2.44,4.32,4.32,0,0,0,.8,1.11.79.79,0,0,1,.2.43q.23,1.44-3.53,2a9,9,0,0,1-3.09.14,1,1,0,0,1-.78-.84.85.85,0,0,1,0-.44,4.13,4.13,0,0,1,.45-.64,1.13,1.13,0,0,0,.26-.53,3.27,3.27,0,0,0,0-.83c-.08-.89-.19-1.79-.34-2.69-.24-1.57-.77-2.3-1.57-2.17a1,1,0,0,0-.92,1.18,20.38,20.38,0,0,0,.29,2.75,17.43,17.43,0,0,0,.32,1.72,2.66,2.66,0,0,0,.43.81,2,2,0,0,1,.43.8c.08.53-.23.94-.93,1.26a10.13,10.13,0,0,1-2.58.74,9.26,9.26,0,0,1-2.77.13c-.61-.1-.95-.37-1-.8a.81.81,0,0,1,.05-.42,3.59,3.59,0,0,1,.45-.62,2.06,2.06,0,0,0,.41-1.46q-.1-1.51-.36-3.12a8,8,0,0,0-.36-1.58,1.36,1.36,0,0,0-.6-.65,2.49,2.49,0,0,1-.54-.35.74.74,0,0,1-.16-.38c-.08-.54.27-1,1.06-1.48A15.88,15.88,0,0,1,344.52,314.69Z" transform="translate(-162.48 -47.79)"/><path class="cls-9" d="M372.59,315.25l-.76,7.05a3.72,3.72,0,0,0,0,1.24,1.65,1.65,0,0,0,.54.78,2.24,2.24,0,0,1,.45.51.88.88,0,0,1,.08.5q-.17,1.56-4.14,1.13a13.26,13.26,0,0,1-3.35-.7,1.4,1.4,0,0,1-.64-.5,1.09,1.09,0,0,1-.19-.72,1,1,0,0,1,.19-.5,3.67,3.67,0,0,1,.75-.5,1.58,1.58,0,0,0,.63-.86,8.43,8.43,0,0,0,.36-1.86c0-.27.06-.77.11-1.51s.06-1.16.06-1.28a1,1,0,0,0-.6-.84,1.06,1.06,0,0,1-.65-1.05c.06-.51.42-.86,1.11-1a22.17,22.17,0,0,1,3-.57,11.72,11.72,0,0,1,2.45-.11C372.45,314.47,372.65,314.75,372.59,315.25Zm-1.83-5.58a3.15,3.15,0,0,1,1.64.58,1.21,1.21,0,0,1,.5,1.13,1.68,1.68,0,0,1-1.09,1.38,7.17,7.17,0,0,1-3.68.47,2.59,2.59,0,0,1-1.37-.49,1.35,1.35,0,0,1-.57-1.29c.07-.7.63-1.19,1.67-1.48A7.91,7.91,0,0,1,370.76,309.67Z" transform="translate(-162.48 -47.79)"/><path class="cls-9" d="M381.91,316.75v3.91a30.11,30.11,0,0,0,.08,3,.91.91,0,0,0,.61.66,1.68,1.68,0,0,1,.6.37.7.7,0,0,1,.15.49,1.1,1.1,0,0,1-.28.73,1.58,1.58,0,0,1-.77.46,11.24,11.24,0,0,1-3,.27,10.87,10.87,0,0,1-3.31-.35,1.68,1.68,0,0,1-.72-.5,1.06,1.06,0,0,1-.28-.7.61.61,0,0,1,.15-.45,2.13,2.13,0,0,1,.67-.38c.31-.14.51-.52.58-1.14a39.17,39.17,0,0,0,.2-4.51,26.12,26.12,0,0,0-.17-3.83,1.83,1.83,0,0,0-.86-1.27,2.17,2.17,0,0,1-.7-.56,1,1,0,0,1-.19-.64,1.28,1.28,0,0,1,.57-1,5.85,5.85,0,0,1,1.83-.83,20.3,20.3,0,0,1,2.19-.49,13.53,13.53,0,0,1,1.95-.23c.65,0,1,.4,1,1.2,0,.26,0,.86-.12,1.79C382,314.2,381.93,315.53,381.91,316.75Z" transform="translate(-162.48 -47.79)"/><path class="cls-9" d="M395.1,322.7l-2.37,4.08a17,17,0,0,1-1.65,2.44,8,8,0,0,1-1.67,1.5,5.34,5.34,0,0,1-4,.82,4.38,4.38,0,0,1-2.71-1.45,2.35,2.35,0,0,1-.53-2,2.21,2.21,0,0,1,.88-1.45,2,2,0,0,1,1.57-.36,1.79,1.79,0,0,1,1.29.82,1.54,1.54,0,0,1,.25.53,8.8,8.8,0,0,1,.09.95.6.6,0,0,0,.51.63.74.74,0,0,0,.68-.21,1.31,1.31,0,0,0,.4-.76,5.35,5.35,0,0,0-.29-2l-1.79-6.68a5.6,5.6,0,0,0-.47-1.32,3.31,3.31,0,0,0-.9-.77A.93.93,0,0,1,384,317a1.08,1.08,0,0,1-.08-.57c.13-.72.93-1.08,2.39-1.08a18.47,18.47,0,0,1,3.28.33,6.28,6.28,0,0,1,2,.62,1.27,1.27,0,0,1,.77,1.37,1.4,1.4,0,0,1-.4.66,1.18,1.18,0,0,0-.39.64,1.46,1.46,0,0,0,0,.62,10.5,10.5,0,0,0,.34,1.15c.21.62.42.95.66,1s.55-.16.9-.6a3.09,3.09,0,0,0,.65-1.36,1.31,1.31,0,0,0-.14-.95,1.57,1.57,0,0,1-.29-1c.07-.41.4-.69,1-.83a5.54,5.54,0,0,1,2.26,0c1.69.31,2.47.87,2.32,1.68a1,1,0,0,1-.38.67,2.54,2.54,0,0,1-1,.35,1.86,1.86,0,0,0-1,.55A14.85,14.85,0,0,0,395.1,322.7Z" transform="translate(-162.48 -47.79)"/><path class="cls-9" d="M411.84,318.37v3.92c0,1.73,0,2.74.08,3a.93.93,0,0,0,.6.66,1.75,1.75,0,0,1,.61.36.74.74,0,0,1,.15.49,1.09,1.09,0,0,1-.29.73,1.52,1.52,0,0,1-.76.47,11.9,11.9,0,0,1-3,.26,10.48,10.48,0,0,1-3.3-.35,1.62,1.62,0,0,1-.72-.49,1.1,1.1,0,0,1-.29-.71.65.65,0,0,1,.16-.45,2.41,2.41,0,0,1,.66-.38c.32-.13.52-.51.59-1.13a39.82,39.82,0,0,0,.19-4.52,24.87,24.87,0,0,0-.17-3.83,1.84,1.84,0,0,0-.85-1.27,2.17,2.17,0,0,1-.7-.56,1,1,0,0,1-.19-.64,1.3,1.3,0,0,1,.57-1,5.65,5.65,0,0,1,1.83-.82,17.71,17.71,0,0,1,2.19-.49,12.09,12.09,0,0,1,1.95-.23c.64,0,1,.39,1,1.19q0,.39-.12,1.8C411.92,315.82,411.86,317.16,411.84,318.37Z" transform="translate(-162.48 -47.79)"/><path class="cls-9" d="M422.19,316l-1,7a3.76,3.76,0,0,0,0,1.24,1.62,1.62,0,0,0,.51.81,2.29,2.29,0,0,1,.43.52.9.9,0,0,1,.06.5q-.24,1.56-4.18,1a13.31,13.31,0,0,1-3.32-.84,1.33,1.33,0,0,1-.62-.52,1,1,0,0,1-.16-.73.79.79,0,0,1,.21-.48,3.61,3.61,0,0,1,.76-.48,1.6,1.6,0,0,0,.67-.83,8.62,8.62,0,0,0,.43-1.85c0-.26.1-.76.17-1.5s.11-1.16.11-1.28a1,1,0,0,0-.57-.86,1.06,1.06,0,0,1-.6-1.08c.07-.51.46-.84,1.14-1a23.46,23.46,0,0,1,3-.45,11.67,11.67,0,0,1,2.45,0C422.08,315.17,422.26,315.46,422.19,316Zm-1.61-5.65a3.19,3.19,0,0,1,1.61.64,1.21,1.21,0,0,1,.46,1.15,1.64,1.64,0,0,1-1.15,1.33,7,7,0,0,1-3.69.33,2.53,2.53,0,0,1-1.35-.54,1.39,1.39,0,0,1-.52-1.31c.1-.69.68-1.16,1.73-1.41A7.57,7.57,0,0,1,420.58,310.31Z" transform="translate(-162.48 -47.79)"/><path class="cls-9" d="M430,311.35l.65,4.72,0,.26c0,.16.1.23.2.21s.2-.14.43-.4a4.81,4.81,0,0,1,2.9-1.69,4.29,4.29,0,0,1,3.18.7,5.33,5.33,0,0,1,2.3,3.71,7,7,0,0,1-5.79,8.31,7.33,7.33,0,0,1-2.32.07,9.07,9.07,0,0,1-2.38-.71.67.67,0,0,0-.31-.06,4.5,4.5,0,0,0-.7.36,2.25,2.25,0,0,1-.72.25c-.49.08-.77,0-.82-.36a1.47,1.47,0,0,1,0-.37,8.76,8.76,0,0,0,0-2c-.08-.78-.26-2-.55-3.67l-.57-3.32a7.31,7.31,0,0,0-.36-1.54.85.85,0,0,0-.63-.4,2.66,2.66,0,0,1-.95-.37,1,1,0,0,1-.36-.62c-.09-.54.39-1.16,1.45-1.87a13.4,13.4,0,0,1,2.22-1.12,12.36,12.36,0,0,1,2.35-.72C429.63,310.66,429.88,310.86,430,311.35Zm2.29,7.16a1,1,0,0,0-.86.6,2.84,2.84,0,0,0,0,1.42,23.22,23.22,0,0,0,.85,3.78,1,1,0,0,0,1.17.73,1.49,1.49,0,0,0,1.21-1,4.25,4.25,0,0,0,.09-2.24,4.92,4.92,0,0,0-1.3-2.93A1.41,1.41,0,0,0,432.25,318.51Z" transform="translate(-162.48 -47.79)"/><path class="cls-9" d="M445.62,311c.43-.06.7,0,.81.08a3.42,3.42,0,0,1,.39,1.13c.08.35.23.51.44.49s.3-.16.42-.41a2.93,2.93,0,0,1,2.34-1.83,2.42,2.42,0,0,1,1.89.49,2.73,2.73,0,0,1,.67.84,2.68,2.68,0,0,1,.35,1,3.12,3.12,0,0,1-.69,2.27,2.62,2.62,0,0,1-1.81,1,2.26,2.26,0,0,1-1.06-.09,5.17,5.17,0,0,1-1.21-.75.67.67,0,0,0-.5-.19.43.43,0,0,0-.39.43,7.54,7.54,0,0,0,.09,1.62,14.24,14.24,0,0,0,.45,2.48,1,1,0,0,0,.29.47,1.93,1.93,0,0,0,.69.21c.75.12,1.16.46,1.23,1a1.21,1.21,0,0,1-.25.91,1.7,1.7,0,0,1-.87.61,18.19,18.19,0,0,1-3.38.66,10.76,10.76,0,0,1-3.31,0q-1-.21-1.14-1.05a1.42,1.42,0,0,1,.59-1.22,1.76,1.76,0,0,0,.43-.48,1.12,1.12,0,0,0,.12-.53,28.9,28.9,0,0,0-.31-4.11,2,2,0,0,0-.22-.77.94.94,0,0,0-.53-.32c-.6-.15-.93-.44-1-.87a1.2,1.2,0,0,1,.47-1.08,7.37,7.37,0,0,1,1.88-1.07A11.5,11.5,0,0,1,445.62,311Z" transform="translate(-162.48 -47.79)"/><path class="cls-9" d="M459.74,314.78a5.93,5.93,0,0,1,3.4,1.6,3.09,3.09,0,0,1,.88,1.46,5.13,5.13,0,0,1,0,2.05l-.29,1.8a6.89,6.89,0,0,0-.1,2.46.87.87,0,0,0,.2.38,1.58,1.58,0,0,0,.49.21.45.45,0,0,1,.31.56,2.1,2.1,0,0,1-.65,1.14,4,4,0,0,1-1.36.87,3.75,3.75,0,0,1-2,.25,2.55,2.55,0,0,1-1.88-1.17c-.13-.24-.28-.37-.42-.39a1.3,1.3,0,0,0-.69.21,4.64,4.64,0,0,1-2.87.47,4.5,4.5,0,0,1-2.46-1.06,3.39,3.39,0,0,1-1-2.88,3,3,0,0,1,1.34-2.07,6.73,6.73,0,0,1,5-.82,1.67,1.67,0,0,0,.9,0c.13-.07.23-.28.28-.62a4.71,4.71,0,0,0,0-1.89.9.9,0,0,0-.78-.7,1,1,0,0,0-.68.12,3.73,3.73,0,0,0-.83.69,2.93,2.93,0,0,1-2.47,1.19,1.39,1.39,0,0,1-.92-.49,1.21,1.21,0,0,1-.23-1,1.87,1.87,0,0,1,.64-1.09,4.11,4.11,0,0,1,1.41-.83A9.74,9.74,0,0,1,459.74,314.78Zm-1.86,6.87a1.19,1.19,0,0,0-1,.29,1.65,1.65,0,0,0-.41,2,.93.93,0,0,0,.68.47c.64.09,1-.4,1.21-1.49a1.9,1.9,0,0,0,0-.91A.58.58,0,0,0,457.88,321.65Z" transform="translate(-162.48 -47.79)"/><path class="cls-9" d="M472.12,315.94c.43,0,.69.11.77.24a3.13,3.13,0,0,1,.17,1.18c0,.36.14.55.35.56s.32-.09.48-.32a3,3,0,0,1,2.65-1.36,2.45,2.45,0,0,1,1.77.84,2.71,2.71,0,0,1,.5.94,3,3,0,0,1,.15,1.08,2.87,2.87,0,0,1-.35,1.16,2.78,2.78,0,0,1-.76.95,2.67,2.67,0,0,1-2,.62,2.31,2.31,0,0,1-1-.29,5.13,5.13,0,0,1-1.05-1,.73.73,0,0,0-.46-.29.46.46,0,0,0-.47.36,8.64,8.64,0,0,0-.21,1.61,14.88,14.88,0,0,0,0,2.51.94.94,0,0,0,.2.52,1.92,1.92,0,0,0,.63.33c.72.27,1.06.68,1,1.22a1.3,1.3,0,0,1-.41.85,1.84,1.84,0,0,1-1,.43,18.1,18.1,0,0,1-3.45,0,10.79,10.79,0,0,1-3.25-.59,1.23,1.23,0,0,1-.92-1.25,1.41,1.41,0,0,1,.8-1.08,1.87,1.87,0,0,0,.52-.39,1.21,1.21,0,0,0,.22-.51,29.48,29.48,0,0,0,.46-4.09,1.89,1.89,0,0,0-.07-.79A.86.86,0,0,0,467,319c-.56-.26-.82-.61-.8-1a1.24,1.24,0,0,1,.67-1,7.19,7.19,0,0,1,2.05-.7A11.56,11.56,0,0,1,472.12,315.94Z" transform="translate(-162.48 -47.79)"/><path class="cls-9" d="M491.53,320.57l-2.22,4.17a16.81,16.81,0,0,1-1.56,2.49,8.2,8.2,0,0,1-1.61,1.57,5.34,5.34,0,0,1-4,1,4.33,4.33,0,0,1-2.76-1.35,2.3,2.3,0,0,1-.6-2,2.23,2.23,0,0,1,.82-1.48,2,2,0,0,1,1.56-.43,1.82,1.82,0,0,1,1.32.78,1.85,1.85,0,0,1,.27.52,6.69,6.69,0,0,1,.12.94.61.61,0,0,0,.53.62.79.79,0,0,0,.68-.24,1.3,1.3,0,0,0,.37-.77,5.59,5.59,0,0,0-.36-2l-2-6.61a6.13,6.13,0,0,0-.52-1.31,3.7,3.7,0,0,0-.93-.73,1.08,1.08,0,0,1-.46-1c.1-.71.88-1.1,2.34-1.16a19.63,19.63,0,0,1,3.29.21,6.16,6.16,0,0,1,2,.55,1.26,1.26,0,0,1,.82,1.34,1.3,1.3,0,0,1-.37.67,1.25,1.25,0,0,0-.37.65,1.65,1.65,0,0,0,0,.62q.09.33.39,1.14t.69,1c.25,0,.54-.17.88-.63a3,3,0,0,0,.6-1.38,1.37,1.37,0,0,0-.17-.95,1.52,1.52,0,0,1-.33-1q.09-.62,1-.87a5.46,5.46,0,0,1,2.25-.06c1.71.24,2.51.77,2.39,1.6a1,1,0,0,1-.36.68,2.52,2.52,0,0,1-1,.38,1.88,1.88,0,0,0-1,.59A14.43,14.43,0,0,0,491.53,320.57Z" transform="translate(-162.48 -47.79)"/><path class="cls-1" d="M188.65,553.2c9.76,7.47,22,10.22,34,11.27,12.89,1.13,26,.59,38.87.58l87,0c29,0,58,.4,87-.11A201.11,201.11,0,0,0,477.75,560c6.7-1.55,13.37-3.25,20.17-4.33a136.81,136.81,0,0,1,20.58-1.24c14.39-.07,28.78,0,43.18.05,7.23,0,14.46,0,21.69,0,5.92,0,10.38.09,15.74,1.88.2.06,1.61.59.91.29a16.38,16.38,0,0,1,1.68.83,11.85,11.85,0,0,1,2.9,2,6.14,6.14,0,0,0,8.48,0c2.19-2.19,2.44-6.33,0-8.49-9.88-8.73-23.16-8.48-35.58-8.5l-43.72-.06c-14.53,0-29-.35-43.35,2.42-6.75,1.31-13.41,3.07-20.13,4.53a142.28,142.28,0,0,1-20.23,2.92c-14.24,1-28.57.7-42.84.7l-43.69,0-87.4,0c-14,0-28,.2-42,0-2.93,0-5.85-.14-8.77-.34-1.46-.09-2.91-.21-4.36-.36l-2-.22-.53-.07-.85-.13A69.51,69.51,0,0,1,209,550c-1.25-.36-2.49-.77-3.72-1.22a22.77,22.77,0,0,1-3.33-1.44,44.15,44.15,0,0,1-7.19-4.49c-2.58-2-6.72-.4-8.21,2.15-1.81,3.09-.43,6.23,2.15,8.21Z" transform="translate(-162.48 -47.79)"/><path class="cls-10" d="M403.26,103.24c0,2.65-.63,5.51.14,7.91,1.44,4.51-1,5.6-4.39,6.4-13.18,3.08-15.17,1.55-15.07-11.62,0-2.15,0-4.31.2-6.45.74-8.54,1.16-9,9.21-11.35,8.76-2.53,8.82-2.53,9.56,6.67.23,2.8,0,5.63,0,8.44Z" transform="translate(-162.48 -47.79)"/><path d="M378.51,397.69" transform="translate(-162.48 -47.79)"/><path class="cls-11" d="M378.51,399.19a1.5,1.5,0,0,0,0-3,1.5,1.5,0,0,0,0,3Z" transform="translate(-162.48 -47.79)"/><path d="M260.79,394.56a200.74,200.74,0,0,1,25.38-3.32,134.09,134.09,0,0,1,25.5.22c4.79.6,9.6,1.37,14.44.84,1.9-.2,1.92-3.21,0-3a53.65,53.65,0,0,1-12.78-.62,102.74,102.74,0,0,0-12.88-.91,202.22,202.22,0,0,0-26,1.59q-7.26.9-14.43,2.3c-1.89.37-1.09,3.27.8,2.9Z" transform="translate(-162.48 -47.79)"/><path d="M476,397.79a202.56,202.56,0,0,1,25.38-3.31,134.09,134.09,0,0,1,25.5.22c4.8.59,9.6,1.37,14.45.84,1.9-.21,1.92-3.21,0-3a53.77,53.77,0,0,1-12.79-.63,104.5,104.5,0,0,0-12.87-.91,204.2,204.2,0,0,0-26,1.6q-7.26.9-14.43,2.3c-1.89.37-1.09,3.26.8,2.89Z" transform="translate(-162.48 -47.79)"/><path d="M267,484.7a459.38,459.38,0,0,0,51.14,1.42c1.93-.05,1.93-3.05,0-3A459.38,459.38,0,0,1,267,481.7c-1.92-.16-1.91,2.84,0,3Z" transform="translate(-162.48 -47.79)"/><path d="M483.81,476.29a461.55,461.55,0,0,0,51.13,1.42c1.93,0,1.94-3,0-3a461.55,461.55,0,0,1-51.13-1.42c-1.93-.16-1.92,2.84,0,3Z" transform="translate(-162.48 -47.79)"/><path d="M326.77,398.43a296.8,296.8,0,0,1-1.59,63.48c-.73,5.41-1.24,11.25-3.92,16.12-.93,1.69,1.66,3.21,2.59,1.51,2.39-4.34,3.14-9.24,3.84-14.08q1.15-8.07,1.9-16.2A296.91,296.91,0,0,0,330.72,417q-.18-9.3-1-18.57c-.15-1.91-3.15-1.93-3,0Z" transform="translate(-162.48 -47.79)"/><path d="M542.31,396.81a296.16,296.16,0,0,1-1.6,63.48c-.72,5.42-1.23,11.25-3.91,16.12-.93,1.69,1.66,3.21,2.59,1.52,2.39-4.35,3.13-9.24,3.83-14.09q1.17-8.07,1.9-16.19a297.1,297.1,0,0,0,1.14-32.27q-.19-9.3-1-18.57c-.15-1.91-3.16-1.93-3,0Z" transform="translate(-162.48 -47.79)"/><path class="cls-1" d="M257.73,398.93c-8.85,19.43-8.79,41.64-7.34,62.94" transform="translate(-162.48 -47.79)"/><path class="cls-1" d="M256.44,398.18c-7,15.41-8.57,32.44-8.23,49.17.1,4.85.36,9.69.68,14.52.13,1.92,3.13,1.93,3,0-1.1-16.32-1.49-33,2.57-49A79.65,79.65,0,0,1,259,399.69c.79-1.75-1.8-3.27-2.59-1.51Z" transform="translate(-162.48 -47.79)"/><path class="cls-9" d="M253.65,398.76c-3.33,10.84-3.29,22.29-2.61,33.51.36,5.88.83,11.75,1.25,17.63.39,5.33.75,10.67,1.56,16a54.72,54.72,0,0,0,5.2,17c.88,1.72,3.47.2,2.59-1.51-4.77-9.23-5.5-19.79-6.24-30-.8-11.09-2-22.27-1.68-33.41a69.81,69.81,0,0,1,2.82-18.4c.57-1.85-2.32-2.64-2.89-.8Z" transform="translate(-162.48 -47.79)"/><path class="cls-9" d="M476.63,394.23c-3.33,10.84-3.29,22.29-2.61,33.51.36,5.88.83,11.75,1.25,17.63.39,5.33.75,10.67,1.56,16a54.72,54.72,0,0,0,5.2,17c.88,1.71,3.47.2,2.59-1.52-4.77-9.22-5.5-19.78-6.24-30-.8-11.09-2-22.28-1.68-33.41a69.81,69.81,0,0,1,2.82-18.4c.57-1.85-2.32-2.65-2.89-.8Z" transform="translate(-162.48 -47.79)"/><path class="cls-7" d="M354.06,288l-5,.35c-.37.73-11.59-.34-20.76,12.17-.2.28-.44-.49-.39-1,.8-8.65,3.7-16.07,13.16-24.15,6.59-5.63,22.16-10.06,23.1-10.15,9.52-.95,12.61-1.05,21-2.19,1.23-.17,4.82-1.2,4.4.05-2.49,7.32-6.2,16.2-6.2,16.2a24.65,24.65,0,0,0-4.26-3.08c-3.55-1.83-3.66-2.64-10.51-3.58-4.07-.56-11.47,3.12-13.16,3.76-.05,0-6,1.24-8.77,6.29" transform="translate(-162.48 -47.79)"/><path class="cls-1" d="M209.87,524a1.5,1.5,0,0,0,0-3,1.5,1.5,0,0,0,0,3Z" transform="translate(-162.48 -47.79)"/><path class="cls-1" d="M394.75,63.38c-3.11,1.2-6.23,2.39-9.42,3.36-1.59.49-3.19.92-4.82,1.27q-1.14.26-2.31.45c-.37.06-1.42.33,0,0a12.67,12.67,0,0,1-1.63.16,31.38,31.38,0,0,1-4.65,0,5,5,0,0,1-1.17-.1c1.41.47.12,0-.25-.06-.83-.15-1.65-.34-2.46-.55-3.11-.82-6.1-2-9.14-3-13.06-4.41-27.26-4.63-40.9-5.06a525.3,525.3,0,0,0-81.84,3.37c-7.95,1-15.88,2.18-23.76,3.61a71.94,71.94,0,0,0-10,2.15,18.83,18.83,0,0,0-9.77,6.9c-1.85,2.55-.51,6.8,2.16,8.21,3.11,1.65,6.23.57,8.21-2.15-1.06,1.46.13,0,.49-.38.88-.89-1.16.72-.08.07l.61-.37c.31-.18.64-.33,1-.5.9-.48-.32.19-.43.17.2,0,.84-.31,1-.38l1.07-.33c2.91-.82,5.93-1.28,8.9-1.82,3.36-.61,6.72-1.18,10.1-1.7l4.58-.68,2.41-.34c.35-.05,1.48-.21.1,0l1.45-.19c13.38-1.74,26.84-2.85,40.32-3.43s27.18-.64,40.76-.27c6.67.18,13.34.4,20,.9,1.58.12,3.15.26,4.72.43.78.08,1.58.14,2.35.28-1.34-.25-.48-.07-.18,0l1.87.29a74.3,74.3,0,0,1,9.43,2.13c3.46,1,6.79,2.44,10.26,3.45a36.22,36.22,0,0,0,11.66,1.49c7.87-.34,15.28-2.95,22.55-5.76a6.47,6.47,0,0,0,3.59-2.76,6.16,6.16,0,0,0,.61-4.62c-.92-2.84-4.25-5.4-7.39-4.19Z" transform="translate(-162.48 -47.79)"/><path class="cls-1" d="M169.34,93.88a268.79,268.79,0,0,0-5.85,83.4q.94,10.66,2.7,21.24c1.13,6.86,2.73,13.63,3.82,20.49,2.12,13.28-1.89,26.28-3.92,39.43a302.57,302.57,0,0,0,16.79,155.45q2,5,4.07,9.91a43.12,43.12,0,0,1,2.89,8,19.62,19.62,0,0,1-.56,8.42c-.81,3.41-1.84,6.77-2.7,10.17A237.26,237.26,0,0,0,180,492.26c-.24,3.53-.38,7.06-.46,10.6a6,6,0,0,0,12,0,219.15,219.15,0,0,1,4.59-40.49c1.45-6.89,3.65-13.59,5.07-20.47a32.3,32.3,0,0,0,.53-11.55,40.85,40.85,0,0,0-3.26-10,300.57,300.57,0,0,1-21-73.65,294.07,294.07,0,0,1-1-76.92c.7-5.87,1.69-12.16,2.87-18.34,1.36-7.1,2.92-14.24,3.23-21.49s-1-14.76-2.48-22c-1.33-6.61-2.62-13.37-3.5-20A257.53,257.53,0,0,1,178.83,107c.63-3.3,1.33-6.6,2.08-9.88a6.14,6.14,0,0,0-4.19-7.38,6.06,6.06,0,0,0-7.38,4.19Z" transform="translate(-162.48 -47.79)"/><path class="cls-1" d="M618.12,101.1c-3.92,12.63-7.84,25.34-9.82,38.45a114.26,114.26,0,0,0-1.46,20.73,178,178,0,0,0,2.24,21.1,300,300,0,0,1,3.8,39.13c.26,13.36-.32,26.71-.85,40.05s-1,26.68-.57,40c.23,6.72.69,13.43,1.51,20.09.86,7,2.16,14,3.19,21A89.18,89.18,0,0,1,617,360.8c-.44,6.49-1.54,12.79-2.47,19.24a377.09,377.09,0,0,0-3.29,41.26c-.91,27.71-1.42,55.45-2.12,83.18l-.25,10.28a6,6,0,0,0,12,0q1-41.5,2.07-83c.35-13.54.77-27.1,2.19-40.57,1.4-13.28,4.66-26.5,4-39.93s-4-26.36-5.06-39.63a359.75,359.75,0,0,1-.45-39.95c.88-27,2.67-53.93-1-80.8-1.82-13.07-4.39-26-3.61-39.25.76-12.85,4.14-25.53,7.85-37.93.94-3.14,1.91-6.28,2.88-9.41a6,6,0,1,0-11.57-3.19Z" transform="translate(-162.48 -47.79)"/><path class="cls-1" d="M411,72.57q5.06-1.29,10.17-2.27c1.55-.29,3.1-.56,4.66-.82.77-.13,1.55-.25,2.33-.36l1.4-.21.28,0a192.92,192.92,0,0,1,20.23-1.69,331.9,331.9,0,0,1,40.87,1.26c6.83.58,13.64,1.3,20.44,2.09,3.31.38,6.63.78,9.94,1.19l5,.62,2.65.34,1,.12.81.11A180.68,180.68,0,0,1,551,76.57,163.85,163.85,0,0,1,570.53,83c14.81,5.74,29.43,12,44.13,18a6,6,0,0,0,4.62-.6A6.17,6.17,0,0,0,622,96.77a6.06,6.06,0,0,0-.61-4.62,7.08,7.08,0,0,0-3.58-2.76c-13.3-5.44-26.56-11-39.89-16.31-6.37-2.56-12.81-5-19.4-6.9A155.46,155.46,0,0,0,538,61.91c-14-2.07-28.16-3.71-42.28-5a362.21,362.21,0,0,0-41.13-1.82A207.56,207.56,0,0,0,407.8,61a6.07,6.07,0,0,0-4.19,7.39A6.13,6.13,0,0,0,411,72.57Z" transform="translate(-162.48 -47.79)"/><path class="cls-1" d="M414.58,62a11.78,11.78,0,0,0-3-10.84,11.64,11.64,0,0,0-10.84-3,5.7,5.7,0,0,0-3,1.76,14,14,0,0,0-1.71,2.76,16.76,16.76,0,0,0-1.86,6.06,9.1,9.1,0,0,0,1.49,5.87A17.89,17.89,0,0,0,400,68.71c2.2,1.66,5.06,2.32,7.53.78a19,19,0,0,0,4.92-4.95,3.4,3.4,0,0,0-1.22-4.63,3.47,3.47,0,0,0-4.62,1.21c-.09.13-.33.54,0,0a3.76,3.76,0,0,1-.25.31c-.2.24-.4.48-.62.71a19.62,19.62,0,0,1-1.55,1.47c-.42.37,0-.1.09-.06l-.31.2c-.32.29.57-.13.15,0s.28,0,.29,0l.41.07-.24-.05c-.06,0-.49-.19-.07,0s-.06-.06-.17-.12a6.33,6.33,0,0,1-.54-.36l-.32-.23c-.4-.27.45.37.08.06s-.47-.36-.69-.55a14.88,14.88,0,0,1-1.46-1.4c-.07-.07-.27-.4,0-.05s0-.07-.09-.16-.12-.22-.19-.33c-.28-.46.08.11,0,.11a5.45,5.45,0,0,1-.24-.84c-.11-.36.07.24,0,.28a3.42,3.42,0,0,0,0-.62,3.78,3.78,0,0,0,.05-.88c.15.18-.13.62,0,.14,0-.16.07-.34.12-.5a8.89,8.89,0,0,1,.26-.88c0-.13.09-.25.13-.38.28-.8-.19.39,0-.05s.53-1.13.84-1.68c.14-.26.31-.52.45-.79.28-.52,0-.08-.07,0s-.88.37-.54.29c.12,0,.77-.27.82-.19s-.89.06-.21,0l.35,0c.27,0,.55,0,.82,0a1.51,1.51,0,0,1,.46,0c-.07-.07-.71-.14-.2,0,.3.07.6.14.9.24.11,0,.22.08.33.12.44.13-.56-.3-.16-.07.24.13.49.24.72.38l.39.26c.42.27-.1,0-.12-.11,0,.15.65.61.76.73s.17.25.23.26c-.26-.35-.32-.42-.18-.22l.14.19a8.13,8.13,0,0,1,.47.81c.05.11.26.58.07.13s.07.2.08.25a7,7,0,0,1,.24.9,3.4,3.4,0,0,0,.09.46c-.07-.18-.06-.66-.05-.2s0,.7,0,1.05a1.42,1.42,0,0,0,0,.35c.07-.47.08-.58,0-.32,0,.11,0,.23-.07.34a3.38,3.38,0,1,0,6.52,1.8Z" transform="translate(-162.48 -47.79)"/><line class="cls-12" x1="131.01" y1="335.04" x2="139.19" y2="454.01"/><line class="cls-12" x1="329.69" y1="336.52" x2="337.87" y2="455.49"/><polygon class="cls-5" points="132.36 334.59 148.47 334.39 151.7 452.44 140.46 452.44 132.36 334.59"/><path class="cls-10" d="M403.5,103.15c0,2.65-.63,5.5.14,7.91,1.44,4.5-1,5.6-4.39,6.39-13.18,3.08-15.17,1.55-15.07-11.62,0-2.15,0-4.31.2-6.44.75-8.54,1.17-9,9.22-11.35,8.75-2.53,8.81-2.54,9.56,6.66.23,2.8,0,5.63,0,8.45Z" transform="translate(-162.48 -47.79)"/><polygon class="cls-5" points="226.65 45.82 228.2 45.01 227.91 46.74 229.16 47.96 227.43 48.21 226.65 49.79 225.87 48.21 224.14 47.96 225.39 46.74 225.1 45.01 226.65 45.82"/><polygon class="cls-5" points="234.2 43.54 235.75 42.72 235.46 44.45 236.71 45.68 234.97 45.93 234.2 47.5 233.42 45.93 231.69 45.68 232.94 44.45 232.65 42.72 234.2 43.54"/><polygon class="cls-5" points="226.65 52.38 228.2 51.56 227.91 53.29 229.16 54.52 227.43 54.77 226.65 56.34 225.87 54.77 224.14 54.52 225.39 53.29 225.1 51.56 226.65 52.38"/><polygon class="cls-5" points="234.2 50.09 235.75 49.28 235.46 51.01 236.71 52.23 234.97 52.48 234.2 54.06 233.42 52.48 231.69 52.23 232.94 51.01 232.65 49.28 234.2 50.09"/><polygon class="cls-5" points="226.65 58.83 228.2 58.02 227.91 59.75 229.16 60.97 227.43 61.22 226.65 62.8 225.87 61.22 224.14 60.97 225.39 59.75 225.1 58.02 226.65 58.83"/><polygon class="cls-5" points="234.2 56.55 235.75 55.73 235.46 57.46 236.71 58.69 234.97 58.94 234.2 60.51 233.42 58.94 231.69 58.69 232.94 57.46 232.65 55.73 234.2 56.55"/><polygon class="cls-5" points="226.65 64.89 228.2 64.08 227.91 65.81 229.16 67.03 227.43 67.28 226.65 68.86 225.87 67.28 224.14 67.03 225.39 65.81 225.1 64.08 226.65 64.89"/><polygon class="cls-5" points="234.2 62.61 235.75 61.79 235.46 63.52 236.71 64.75 234.97 65 234.2 66.57 233.42 65 231.69 64.75 232.94 63.52 232.65 61.79 234.2 62.61"/><polygon class="cls-5" points="330.66 336.38 346.77 336.19 350 454.24 338.76 454.24 330.66 336.38"/></svg>